<svg width="233" height="220" viewBox="0 0 233 220" fill="none" xmlns="http://www.w3.org/2000/svg">
<g opacity="0.05" filter="url(#filter0_d)">
<path d="M58.8332 97.1869H96.3166C97.9111 97.1869 99.1999 95.8952 99.1999 94.3036C99.1999 92.712 97.9111 91.4202 96.3166 91.4202H58.8332C57.2388 91.4202 55.9499 92.712 55.9499 94.3036C55.9499 95.8952 57.2388 97.1869 58.8332 97.1869Z" fill="#2e7d32"/>
<path d="M58.8332 97.1869H96.3166C97.9111 97.1869 99.1999 95.8952 99.1999 94.3036C99.1999 92.712 97.9111 91.4202 96.3166 91.4202H58.8332C57.2388 91.4202 55.9499 92.712 55.9499 94.3036C55.9499 95.8952 57.2388 97.1869 58.8332 97.1869Z" fill="url(#paint0_linear)" fill-opacity="0.3"/>
<path d="M133.8 108.72H58.8332C57.2388 108.72 55.9499 110.012 55.9499 111.604C55.9499 113.195 57.2388 114.487 58.8332 114.487H133.8C135.394 114.487 136.683 113.195 136.683 111.604C136.683 110.012 135.394 108.72 133.8 108.72Z" fill="#2e7d32"/>
<path d="M133.8 108.72H58.8332C57.2388 108.72 55.9499 110.012 55.9499 111.604C55.9499 113.195 57.2388 114.487 58.8332 114.487H133.8C135.394 114.487 136.683 113.195 136.683 111.604C136.683 110.012 135.394 108.72 133.8 108.72Z" fill="url(#paint1_linear)" fill-opacity="0.3"/>
<path d="M133.8 126.02H58.8332C57.2388 126.02 55.9499 127.312 55.9499 128.903C55.9499 130.495 57.2388 131.787 58.8332 131.787H133.8C135.394 131.787 136.683 130.495 136.683 128.903C136.683 127.312 135.394 126.02 133.8 126.02Z" fill="#2e7d32"/>
<path d="M133.8 126.02H58.8332C57.2388 126.02 55.9499 127.312 55.9499 128.903C55.9499 130.495 57.2388 131.787 58.8332 131.787H133.8C135.394 131.787 136.683 130.495 136.683 128.903C136.683 127.312 135.394 126.02 133.8 126.02Z" fill="url(#paint2_linear)" fill-opacity="0.3"/>
<path d="M185.908 31.072L87.4648 30.8701C78.0363 30.8701 70.3667 38.5398 70.3667 47.9683V62.7425L47.0982 62.7915C37.6697 62.7915 30 70.4612 30 79.8897V140.846C30 150.275 37.6697 157.942 47.0982 157.942H64.6V186.775C64.6 187.966 65.3324 189.035 66.4453 189.465C66.7827 189.595 67.1345 189.658 67.4833 189.658C68.2791 189.658 69.0605 189.327 69.617 188.715L97.5969 157.936L145.535 157.74C154.964 157.74 162.633 150.07 162.633 140.644V140.319L177.8 157.002C178.356 157.613 179.138 157.944 179.933 157.944C180.282 157.944 180.634 157.881 180.971 157.751C182.084 157.322 182.817 156.252 182.817 155.061V126.228H185.902C195.33 126.228 203 118.558 203 109.132V48.1701C203 38.7445 195.333 31.0749 185.908 31.072ZM156.867 140.642C156.867 146.89 151.783 151.97 145.524 151.97L96.3051 152.172C95.4978 152.175 94.7251 152.518 94.183 153.115L70.3667 179.316V155.055C70.3667 153.464 69.0778 152.172 67.4833 152.172H47.0982C40.85 152.172 35.7667 147.089 35.7667 140.843V79.8868C35.7667 73.6386 40.85 68.5553 47.1039 68.5553L73.25 68.5005C73.2529 68.5005 73.2529 68.5005 73.2558 68.5005L145.535 68.3506C151.783 68.3506 156.867 73.4339 156.867 79.6821V132.854V140.642ZM197.233 109.127C197.233 115.375 192.15 120.455 185.902 120.455H179.933C178.339 120.455 177.05 121.747 177.05 123.339V147.599L162.633 131.741V79.685C162.633 70.2565 154.964 62.5868 145.529 62.5868L76.1333 62.7281V47.9654C76.1333 41.7172 81.2167 36.6339 87.4591 36.6339L185.899 36.8358C185.902 36.8358 185.902 36.8358 185.905 36.8358C192.153 36.8358 197.236 41.9191 197.236 48.1673V109.127H197.233Z" fill="#2e7d32"/>
<path d="M185.908 31.072L87.4648 30.8701C78.0363 30.8701 70.3667 38.5398 70.3667 47.9683V62.7425L47.0982 62.7915C37.6697 62.7915 30 70.4612 30 79.8897V140.846C30 150.275 37.6697 157.942 47.0982 157.942H64.6V186.775C64.6 187.966 65.3324 189.035 66.4453 189.465C66.7827 189.595 67.1345 189.658 67.4833 189.658C68.2791 189.658 69.0605 189.327 69.617 188.715L97.5969 157.936L145.535 157.74C154.964 157.74 162.633 150.07 162.633 140.644V140.319L177.8 157.002C178.356 157.613 179.138 157.944 179.933 157.944C180.282 157.944 180.634 157.881 180.971 157.751C182.084 157.322 182.817 156.252 182.817 155.061V126.228H185.902C195.33 126.228 203 118.558 203 109.132V48.1701C203 38.7445 195.333 31.0749 185.908 31.072ZM156.867 140.642C156.867 146.89 151.783 151.97 145.524 151.97L96.3051 152.172C95.4978 152.175 94.7251 152.518 94.183 153.115L70.3667 179.316V155.055C70.3667 153.464 69.0778 152.172 67.4833 152.172H47.0982C40.85 152.172 35.7667 147.089 35.7667 140.843V79.8868C35.7667 73.6386 40.85 68.5553 47.1039 68.5553L73.25 68.5005C73.2529 68.5005 73.2529 68.5005 73.2558 68.5005L145.535 68.3506C151.783 68.3506 156.867 73.4339 156.867 79.6821V132.854V140.642ZM197.233 109.127C197.233 115.375 192.15 120.455 185.902 120.455H179.933C178.339 120.455 177.05 121.747 177.05 123.339V147.599L162.633 131.741V79.685C162.633 70.2565 154.964 62.5868 145.529 62.5868L76.1333 62.7281V47.9654C76.1333 41.7172 81.2167 36.6339 87.4591 36.6339L185.899 36.8358C185.902 36.8358 185.902 36.8358 185.905 36.8358C192.153 36.8358 197.236 41.9191 197.236 48.1673V109.127H197.233Z" fill="url(#paint3_linear)" fill-opacity="0.3"/>
</g>
<defs>
<filter id="filter0_d" x="0" y="-6.23694" width="233" height="233" filterUnits="userSpaceOnUse" color-interpolation-filters="sRGB">
<feFlood flood-opacity="0" result="BackgroundImageFix"/>
<feColorMatrix in="SourceAlpha" type="matrix" values="0 0 0 0 0 0 0 0 0 0 0 0 0 0 0 0 0 0 127 0"/>
<feOffset/>
<feGaussianBlur stdDeviation="15"/>
<feColorMatrix type="matrix" values="0 0 0 0 0.156863 0 0 0 0 0.243137 0 0 0 0 0.521569 0 0 0 0.1 0"/>
<feBlend mode="normal" in2="BackgroundImageFix" result="effect1_dropShadow"/>
<feBlend mode="normal" in="SourceGraphic" in2="effect1_dropShadow" result="shape"/>
</filter>
<linearGradient id="paint0_linear" x1="52.759" y1="91.4202" x2="55.7731" y2="106.166" gradientUnits="userSpaceOnUse">
<stop stop-color="#2e7d32"/>
<stop offset="1" stop-color="#1D3479"/>
</linearGradient>
<linearGradient id="paint1_linear" x1="49.9935" y1="108.72" x2="51.6557" y2="123.9" gradientUnits="userSpaceOnUse">
<stop stop-color="#2e7d32"/>
<stop offset="1" stop-color="#1D3479"/>
</linearGradient>
<linearGradient id="paint2_linear" x1="49.9935" y1="126.02" x2="51.6557" y2="141.2" gradientUnits="userSpaceOnUse">
<stop stop-color="#2e7d32"/>
<stop offset="1" stop-color="#1D3479"/>
</linearGradient>
<linearGradient id="paint3_linear" x1="17.2362" y1="30.8701" x2="216.971" y2="172.815" gradientUnits="userSpaceOnUse">
<stop stop-color="#2e7d32"/>
<stop offset="1" stop-color="#1D3479"/>
</linearGradient>
</defs>
</svg>
