<svg width="36" height="36" viewBox="0 0 36 36" fill="none" xmlns="http://www.w3.org/2000/svg">
<mask id="mask0" mask-type="alpha" maskUnits="userSpaceOnUse" x="0" y="0" width="36" height="36">
<rect width="36" height="36" fill="#C4C4C4"/>
</mask>
<g mask="url(#mask0)">
<path d="M33.1627 9.29212C32.6314 9.29212 32.2005 9.72303 32.2005 10.2543V34.2967H1.92443V4.0208H25.4653C25.9968 4.0208 26.4275 3.58989 26.4275 3.05859C26.4275 2.52729 25.9968 2.09637 25.4653 2.09637H0.962213C0.430911 2.09637 0 2.52729 0 3.05859V35.2589C0 35.7902 0.430911 36.2211 0.962213 36.2211H33.1627C33.694 36.2211 34.1249 35.7902 34.1249 35.2589V10.2543C34.1249 9.72303 33.694 9.29212 33.1627 9.29212Z" fill="#2e7d32"/>
<path d="M33.1627 9.29212C32.6314 9.29212 32.2005 9.72303 32.2005 10.2543V34.2967H1.92443V4.0208H25.4653C25.9968 4.0208 26.4275 3.58989 26.4275 3.05859C26.4275 2.52729 25.9968 2.09637 25.4653 2.09637H0.962213C0.430911 2.09637 0 2.52729 0 3.05859V35.2589C0 35.7902 0.430911 36.2211 0.962213 36.2211H33.1627C33.694 36.2211 34.1249 35.7902 34.1249 35.2589V10.2543C34.1249 9.72303 33.694 9.29212 33.1627 9.29212Z" fill="url(#paint0_linear)" fill-opacity="0.3"/>
<path d="M35.8171 0.281883C35.4413 -0.0938615 34.8321 -0.0941823 34.4563 0.281883L12.8962 21.9641L6.57882 15.6466C6.20307 15.2707 5.59367 15.2707 5.21809 15.6466C4.84234 16.0224 4.84234 16.6316 5.21809 17.0072L12.2159 24.0051C12.4037 24.193 12.6501 24.287 12.8964 24.287C13.1427 24.287 13.3889 24.193 13.5768 24.0051L35.8171 1.64261C36.193 1.26687 36.193 0.657627 35.8171 0.281883Z" fill="#2e7d32"/>
<path d="M35.8171 0.281883C35.4413 -0.0938615 34.8321 -0.0941823 34.4563 0.281883L12.8962 21.9641L6.57882 15.6466C6.20307 15.2707 5.59367 15.2707 5.21809 15.6466C4.84234 16.0224 4.84234 16.6316 5.21809 17.0072L12.2159 24.0051C12.4037 24.193 12.6501 24.287 12.8964 24.287C13.1427 24.287 13.3889 24.193 13.5768 24.0051L35.8171 1.64261C36.193 1.26687 36.193 0.657627 35.8171 0.281883Z" fill="url(#paint1_linear)" fill-opacity="0.3"/>
</g>
<defs>
<linearGradient id="paint0_linear" x1="-2.51771" y1="2.09637" x2="39.0798" y2="29.23" gradientUnits="userSpaceOnUse">
<stop stop-color="#2e7d32"/>
<stop offset="1" stop-color="#1D3479"/>
</linearGradient>
<linearGradient id="paint1_linear" x1="2.63711" y1="-4.59512e-05" x2="34.4806" y2="26.6513" gradientUnits="userSpaceOnUse">
<stop stop-color="#2e7d32"/>
<stop offset="1" stop-color="#1D3479"/>
</linearGradient>
</defs>
</svg>
