<svg width="15" height="15" viewBox="0 0 15 15" fill="none" xmlns="http://www.w3.org/2000/svg">
<g opacity="0.7" clip-path="url(#clip0)">
<path d="M10.6285 7.10767C11.0061 7.10767 11.3121 6.80161 11.3121 6.42407C11.3121 6.04653 11.0061 5.74048 10.6285 5.74048C10.251 5.74048 9.94495 6.04653 9.94495 6.42407C9.94495 6.80161 10.251 7.10767 10.6285 7.10767Z" fill="#2e7d32"/>
<path d="M7.89417 7.10767C8.2717 7.10767 8.57776 6.80161 8.57776 6.42407C8.57776 6.04653 8.2717 5.74048 7.89417 5.74048C7.51663 5.74048 7.21057 6.04653 7.21057 6.42407C7.21057 6.80161 7.51663 7.10767 7.89417 7.10767Z" fill="#2e7d32"/>
<path d="M5.15979 7.10767C5.53733 7.10767 5.84338 6.80161 5.84338 6.42407C5.84338 6.04653 5.53733 5.74048 5.15979 5.74048C4.78225 5.74048 4.4762 6.04653 4.4762 6.42407C4.4762 6.80161 4.78225 7.10767 5.15979 7.10767Z" fill="#2e7d32"/>
<path d="M14.3473 0.463135H1.44104C1.139 0.463135 0.894165 0.707971 0.894165 1.01001V11.8381C0.894165 12.1402 1.139 12.385 1.44104 12.385H6.28025L7.43178 14.2083C7.532 14.3669 7.70653 14.4631 7.89417 14.4631C8.0818 14.4631 8.25633 14.3669 8.35655 14.2083L9.50808 12.385H14.3473C14.6493 12.385 14.8942 12.1402 14.8942 11.8381V1.01001C14.8942 0.707971 14.6493 0.463135 14.3473 0.463135ZM13.8004 11.2913H9.20667C9.01903 11.2913 8.8445 11.3875 8.74428 11.5461L7.89417 12.8921L7.04405 11.5461C6.94383 11.3875 6.7693 11.2913 6.58167 11.2913H1.98792V1.55688H13.8004V11.2913Z" fill="#2e7d32"/>
</g>
<defs>
<clipPath id="clip0">
<rect width="14" height="14" fill="white" transform="translate(0.894165 0.463135)"/>
</clipPath>
</defs>
</svg>
