<svg width="15" height="15" viewBox="0 0 15 15" fill="none" xmlns="http://www.w3.org/2000/svg">
<g opacity="0.7" clip-path="url(#clip0)">
<path d="M10.1714 6.77295C10.5489 6.77295 10.855 6.46689 10.855 6.08936C10.855 5.71182 10.5489 5.40576 10.1714 5.40576C9.79385 5.40576 9.48779 5.71182 9.48779 6.08936C9.48779 6.46689 9.79385 6.77295 10.1714 6.77295Z" fill="#42415E"/>
<path d="M7.43701 6.77295C7.81455 6.77295 8.12061 6.46689 8.12061 6.08936C8.12061 5.71182 7.81455 5.40576 7.43701 5.40576C7.05947 5.40576 6.75342 5.71182 6.75342 6.08936C6.75342 6.46689 7.05947 6.77295 7.43701 6.77295Z" fill="#42415E"/>
<path d="M4.70264 6.77295C5.08018 6.77295 5.38623 6.46689 5.38623 6.08936C5.38623 5.71182 5.08018 5.40576 4.70264 5.40576C4.3251 5.40576 4.01904 5.71182 4.01904 6.08936C4.01904 6.46689 4.3251 6.77295 4.70264 6.77295Z" fill="#42415E"/>
<path d="M13.8901 0.128418H0.983887C0.681848 0.128418 0.437012 0.373254 0.437012 0.675293V11.5034C0.437012 11.8055 0.681848 12.0503 0.983887 12.0503H5.8231L6.97463 13.8736C7.07484 14.0322 7.24938 14.1284 7.43701 14.1284C7.62464 14.1284 7.79918 14.0322 7.89939 13.8736L9.05092 12.0503H13.8901C14.1922 12.0503 14.437 11.8055 14.437 11.5034V0.675293C14.437 0.373254 14.1922 0.128418 13.8901 0.128418ZM13.3433 10.9565H8.74951C8.56188 10.9565 8.38734 11.0527 8.28713 11.2114L7.43701 12.5574L6.58689 11.2114C6.48668 11.0527 6.31214 10.9565 6.12451 10.9565H1.53076V1.22217H13.3433V10.9565Z" fill="#42415E"/>
</g>
<defs>
<clipPath id="clip0">
<rect width="14" height="14" fill="white" transform="translate(0.437012 0.128418)"/>
</clipPath>
</defs>
</svg>
