<svg width="37" height="37" viewBox="0 0 37 37" fill="none" xmlns="http://www.w3.org/2000/svg">
<g clip-path="url(#clip0)">
<path d="M18.4918 36.4321C28.4329 36.4321 36.4918 28.3733 36.4918 18.4321C36.4918 8.491 28.4329 0.432129 18.4918 0.432129C8.5507 0.432129 0.491821 8.491 0.491821 18.4321C0.491821 28.3733 8.5507 36.4321 18.4918 36.4321Z" fill="#3B5998"/>
<path d="M23.0169 19.1369H19.8051V30.9037H14.9388V19.1369H12.6244V15.0015H14.9388V12.3255C14.9388 10.4119 15.8478 7.41528 19.8484 7.41528L23.453 7.43036V11.4444H20.8376C20.4086 11.4444 19.8054 11.6588 19.8054 12.5716V15.0054H23.4421L23.0169 19.1369Z" fill="white"/>
</g>
<defs>
<clipPath id="clip0">
<rect width="36" height="36" fill="white" transform="translate(0.491821 0.432129)"/>
</clipPath>
</defs>
</svg>
