<svg width="52" height="32" viewBox="0 0 52 32" fill="none" xmlns="http://www.w3.org/2000/svg">
<path d="M3.30825 13.0542H0.379395V0.0511475H10.8344V2.52662H3.30825V5.94513H9.53774V8.32086H3.30825V13.0542Z" fill="#82369C"/>
<path d="M18.1792 3.58754L19.1041 3.67822V6.62521C18.7052 6.43781 18.1671 6.34713 17.4901 6.35318C16.6256 6.35318 15.9607 6.59498 15.4952 7.07859C15.0297 7.57429 14.797 8.19694 14.797 8.94653V13.0542H12.122V3.76889H14.797V5.47361H14.9511C15.0479 5.25599 15.1839 5.03837 15.3592 4.82074C15.5345 4.59707 15.731 4.40363 15.9486 4.24041C16.1964 4.05906 16.5198 3.90491 16.9188 3.77796C17.3178 3.65101 17.7379 3.58754 18.1792 3.58754Z" fill="#82369C"/>
<path d="M20.3101 10.4336C20.3101 9.4785 20.7031 8.76216 21.4889 8.28459C22.2748 7.81307 23.2692 7.57731 24.4722 7.57731C25.0948 7.57731 25.654 7.64079 26.1497 7.76774C26.6454 7.90677 26.99 8.03372 27.1834 8.14858L27.4827 8.35713V6.99698C27.4827 6.59801 27.3315 6.2625 27.0293 5.99047C26.727 5.72449 26.2223 5.59149 25.515 5.59149C25.0072 5.59149 24.5538 5.68519 24.1548 5.87259C23.7377 6.06604 23.5292 6.36225 23.5292 6.76122H20.7817C20.7877 5.70333 21.2169 4.9084 22.0693 4.37643C22.9156 3.8505 24.0641 3.58754 25.515 3.58754C26.9839 3.58754 28.1234 3.87166 28.9335 4.4399C29.7496 5.00814 30.1576 5.8605 30.1576 6.99698V9.89864C30.1576 10.2734 30.203 10.5334 30.2936 10.6785C30.3843 10.8235 30.5415 10.8961 30.7652 10.8961L31.1551 10.8235V13.0542C30.9254 13.1751 30.5415 13.2355 30.0035 13.2355C29.3083 13.2355 28.7824 13.0844 28.4257 12.7822C28.1053 12.5222 27.9028 12.2834 27.8182 12.0658L27.7638 11.9389H27.6277C27.6277 11.963 27.5975 12.0175 27.5371 12.1021C27.4766 12.1807 27.3587 12.2895 27.1834 12.4285C27.0142 12.5676 26.8117 12.6915 26.5759 12.8003C25.9593 13.0905 25.1523 13.2355 24.1548 13.2355C23.0546 13.2355 22.1388 12.9968 21.4073 12.5192C20.6759 12.0477 20.3101 11.3525 20.3101 10.4336ZM25.252 11.2135C25.7296 11.2135 26.1588 11.153 26.5396 11.0321C26.9023 10.9172 27.1532 10.7994 27.2922 10.6785L27.4827 10.5062V9.95304C27.4343 9.90468 27.3708 9.8533 27.2922 9.79889C27.1895 9.7324 26.9507 9.65079 26.5759 9.55407C26.1769 9.4513 25.7356 9.39992 25.252 9.39992C23.7891 9.39992 23.0576 9.70217 23.0576 10.3067C23.0576 10.9112 23.7891 11.2135 25.252 11.2135Z" fill="#82369C"/>
<path d="M33.0139 3.76889H35.6889V8.44781C35.6889 9.22763 35.8975 9.8261 36.3146 10.2432C36.7317 10.6543 37.309 10.8598 38.0465 10.8598C38.8021 10.8598 39.3855 10.6361 39.7966 10.1888C40.2016 9.74751 40.4041 9.16718 40.4041 8.44781V3.76889H43.0791V13.0542H40.4041V11.5127H40.259C40.1865 11.6699 40.0444 11.8663 39.8328 12.1021C39.6515 12.3076 39.452 12.4859 39.2344 12.6371C38.9926 12.8063 38.6601 12.9484 38.2369 13.0633C37.8198 13.1781 37.3785 13.2355 36.913 13.2355C35.7463 13.2355 34.8063 12.897 34.093 12.22C33.3736 11.549 33.0139 10.5394 33.0139 9.19136V3.76889Z" fill="#82369C"/>
<path d="M8.42242 18.6217H11.9135L6.63609 25.0689L12.2036 31.6248H8.71258L3.30825 25.2139V31.6248H0.379395V18.6217H3.30825V24.9056L8.42242 18.6217Z" fill="#82369C"/>
<path d="M13.5003 18.6217H16.1753V31.6248H13.5003V18.6217Z" fill="#82369C"/>
<path d="M18.7777 22.3395H21.4527V31.6248H18.7777V22.3395ZM19.0316 20.5532C18.7656 20.3355 18.6326 20.0393 18.6326 19.6645C18.6326 19.3018 18.7656 19.0056 19.0316 18.7759C19.2915 18.5522 19.6542 18.4404 20.1197 18.4404C20.5852 18.4404 20.9479 18.5522 21.2078 18.7759C21.4738 19.0056 21.6068 19.3018 21.6068 19.6645C21.6068 20.0393 21.4738 20.3355 21.2078 20.5532C20.9479 20.7768 20.5852 20.8887 20.1197 20.8887C19.6542 20.8887 19.2915 20.7768 19.0316 20.5532Z" fill="#82369C"/>
<path d="M34.1202 31.6248H31.4452V26.9459C31.4452 26.166 31.2367 25.5706 30.8196 25.1595C30.4085 24.7424 29.8312 24.5339 29.0876 24.5339C28.332 24.5339 27.7517 24.7545 27.3466 25.1958C26.9356 25.6431 26.73 26.2265 26.73 26.9459V31.6248H24.0551V22.3395H26.73V23.881H26.8842C26.9507 23.7359 27.0928 23.5364 27.3104 23.2825C27.4978 23.077 27.6973 22.9017 27.9088 22.7566C28.1567 22.5873 28.4892 22.4453 28.9063 22.3304C29.3234 22.2156 29.7617 22.1581 30.2211 22.1581C31.3878 22.1581 32.3308 22.4936 33.0502 23.1646C33.7635 23.8417 34.1202 24.8542 34.1202 26.2023V31.6248Z" fill="#82369C"/>
<path d="M36.6229 22.3395H39.2978V31.6248H36.6229V22.3395ZM36.8768 20.5532C36.6108 20.3355 36.4778 20.0393 36.4778 19.6645C36.4778 19.3018 36.6108 19.0056 36.8768 18.7759C37.1367 18.5522 37.4994 18.4404 37.9649 18.4404C38.4304 18.4404 38.7931 18.5522 39.053 18.7759C39.319 19.0056 39.452 19.3018 39.452 19.6645C39.452 20.0393 39.319 20.3355 39.053 20.5532C38.7931 20.7768 38.4304 20.8887 37.9649 20.8887C37.4994 20.8887 37.1367 20.7768 36.8768 20.5532Z" fill="#82369C"/>
<path d="M48.4199 22.3395H51.5573L47.5857 26.8552L51.8928 31.6248H48.7373L44.5752 27.0728V31.6248H41.9003V18.6217H44.5752V26.6829L48.4199 22.3395Z" fill="#82369C"/>
</svg>
