<svg width="144" height="149" viewBox="0 0 144 149" fill="none" xmlns="http://www.w3.org/2000/svg">
<mask id="mask0" mask-type="alpha" maskUnits="userSpaceOnUse" x="0" y="0" width="144" height="149">
<rect width="144" height="149" fill="#C4C4C4"/>
</mask>
<g mask="url(#mask0)">
<g opacity="0.05" filter="url(#filter0_d)">
<path d="M134.072 9.31281H121.221C119.906 9.31281 118.84 10.3786 118.84 11.6933C118.84 13.0079 119.906 14.0737 121.221 14.0737H125.649C124.752 15.5569 124.235 17.2946 124.235 19.151V131.67C124.235 132.984 125.3 134.05 126.615 134.05C127.93 134.05 128.995 132.984 128.995 131.67V19.151C128.995 16.3513 131.273 14.0737 134.072 14.0737C136.872 14.0737 139.15 16.3513 139.15 19.151V131.67C139.15 138.582 133.527 144.205 126.615 144.205C119.703 144.205 114.08 138.582 114.08 131.67V2.17146C114.08 0.856822 113.014 -0.208984 111.699 -0.208984H2.31746C1.0025 -0.208984 -0.0629883 0.856822 -0.0629883 2.17146V131.67C-0.0629883 141.207 7.69632 148.966 17.2333 148.966H126.615C136.152 148.966 143.911 141.207 143.911 131.67V19.151C143.911 13.7262 139.497 9.31281 134.072 9.31281ZM17.2333 144.205C10.3215 144.205 4.69823 138.582 4.69823 131.67V4.55191H109.319V131.67C109.319 136.598 111.391 141.052 114.709 144.205H17.2333Z" fill="#2e7d32"/>
<path d="M134.072 9.31281H121.221C119.906 9.31281 118.84 10.3786 118.84 11.6933C118.84 13.0079 119.906 14.0737 121.221 14.0737H125.649C124.752 15.5569 124.235 17.2946 124.235 19.151V131.67C124.235 132.984 125.3 134.05 126.615 134.05C127.93 134.05 128.995 132.984 128.995 131.67V19.151C128.995 16.3513 131.273 14.0737 134.072 14.0737C136.872 14.0737 139.15 16.3513 139.15 19.151V131.67C139.15 138.582 133.527 144.205 126.615 144.205C119.703 144.205 114.08 138.582 114.08 131.67V2.17146C114.08 0.856822 113.014 -0.208984 111.699 -0.208984H2.31746C1.0025 -0.208984 -0.0629883 0.856822 -0.0629883 2.17146V131.67C-0.0629883 141.207 7.69632 148.966 17.2333 148.966H126.615C136.152 148.966 143.911 141.207 143.911 131.67V19.151C143.911 13.7262 139.497 9.31281 134.072 9.31281ZM17.2333 144.205C10.3215 144.205 4.69823 138.582 4.69823 131.67V4.55191H109.319V131.67C109.319 136.598 111.391 141.052 114.709 144.205H17.2333Z" fill="url(#paint0_linear)" fill-opacity="0.3"/>
<path d="M99.0034 12.4861H15.0132C13.6983 12.4861 12.6328 13.5519 12.6328 14.8666V38.6711C12.6328 39.9857 13.6983 41.0515 15.0132 41.0515H99.0034C100.318 41.0515 101.384 39.9857 101.384 38.6711V14.8666C101.384 13.5519 100.318 12.4861 99.0034 12.4861ZM96.623 36.2906H17.3937V17.247H96.623V36.2906Z" fill="#2e7d32"/>
<path d="M99.0034 12.4861H15.0132C13.6983 12.4861 12.6328 13.5519 12.6328 14.8666V38.6711C12.6328 39.9857 13.6983 41.0515 15.0132 41.0515H99.0034C100.318 41.0515 101.384 39.9857 101.384 38.6711V14.8666C101.384 13.5519 100.318 12.4861 99.0034 12.4861ZM96.623 36.2906H17.3937V17.247H96.623V36.2906Z" fill="url(#paint1_linear)" fill-opacity="0.3"/>
<path d="M99.0034 45.8131H15.0132C13.6983 45.8131 12.6328 46.8789 12.6328 48.1936C12.6328 49.5082 13.6983 50.574 15.0132 50.574H99.0034C100.318 50.574 101.384 49.5082 101.384 48.1936C101.384 46.8789 100.318 45.8131 99.0034 45.8131Z" fill="#2e7d32"/>
<path d="M99.0034 45.8131H15.0132C13.6983 45.8131 12.6328 46.8789 12.6328 48.1936C12.6328 49.5082 13.6983 50.574 15.0132 50.574H99.0034C100.318 50.574 101.384 49.5082 101.384 48.1936C101.384 46.8789 100.318 45.8131 99.0034 45.8131Z" fill="url(#paint2_linear)" fill-opacity="0.3"/>
<path d="M99.0035 64.8566H61.7694C60.4545 64.8566 59.389 65.9224 59.389 67.2371C59.389 68.5517 60.4545 69.6175 61.7694 69.6175H99.0038C100.319 69.6175 101.384 68.5517 101.384 67.2371C101.384 65.9224 100.318 64.8566 99.0035 64.8566Z" fill="#2e7d32"/>
<path d="M99.0035 64.8566H61.7694C60.4545 64.8566 59.389 65.9224 59.389 67.2371C59.389 68.5517 60.4545 69.6175 61.7694 69.6175H99.0038C100.319 69.6175 101.384 68.5517 101.384 67.2371C101.384 65.9224 100.318 64.8566 99.0035 64.8566Z" fill="url(#paint3_linear)" fill-opacity="0.3"/>
<path d="M52.2476 64.8566H15.0132C13.6983 64.8566 12.6328 65.9224 12.6328 67.2371C12.6328 68.5517 13.6983 69.6175 15.0132 69.6175H52.2476C53.5625 69.6175 54.628 68.5517 54.628 67.2371C54.628 65.9224 53.5622 64.8566 52.2476 64.8566Z" fill="#2e7d32"/>
<path d="M52.2476 64.8566H15.0132C13.6983 64.8566 12.6328 65.9224 12.6328 67.2371C12.6328 68.5517 13.6983 69.6175 15.0132 69.6175H52.2476C53.5625 69.6175 54.628 68.5517 54.628 67.2371C54.628 65.9224 53.5622 64.8566 52.2476 64.8566Z" fill="url(#paint4_linear)" fill-opacity="0.3"/>
<path d="M99.0035 74.3781H61.7694C60.4545 74.3781 59.389 75.4439 59.389 76.7585C59.389 78.0732 60.4545 79.139 61.7694 79.139H99.0038C100.319 79.139 101.384 78.0732 101.384 76.7585C101.384 75.4439 100.318 74.3781 99.0035 74.3781Z" fill="#2e7d32"/>
<path d="M99.0035 74.3781H61.7694C60.4545 74.3781 59.389 75.4439 59.389 76.7585C59.389 78.0732 60.4545 79.139 61.7694 79.139H99.0038C100.319 79.139 101.384 78.0732 101.384 76.7585C101.384 75.4439 100.318 74.3781 99.0035 74.3781Z" fill="url(#paint5_linear)" fill-opacity="0.3"/>
<path d="M52.2476 74.3781H15.0132C13.6983 74.3781 12.6328 75.4439 12.6328 76.7585C12.6328 78.0732 13.6983 79.139 15.0132 79.139H52.2476C53.5625 79.139 54.628 78.0732 54.628 76.7585C54.628 75.4439 53.5622 74.3781 52.2476 74.3781Z" fill="#2e7d32"/>
<path d="M52.2476 74.3781H15.0132C13.6983 74.3781 12.6328 75.4439 12.6328 76.7585C12.6328 78.0732 13.6983 79.139 15.0132 79.139H52.2476C53.5625 79.139 54.628 78.0732 54.628 76.7585C54.628 75.4439 53.5622 74.3781 52.2476 74.3781Z" fill="url(#paint6_linear)" fill-opacity="0.3"/>
<path d="M99.0035 83.8996H61.7694C60.4545 83.8996 59.389 84.9654 59.389 86.28C59.389 87.5946 60.4545 88.6604 61.7694 88.6604H99.0038C100.319 88.6604 101.384 87.5946 101.384 86.28C101.384 84.9654 100.318 83.8996 99.0035 83.8996Z" fill="#2e7d32"/>
<path d="M99.0035 83.8996H61.7694C60.4545 83.8996 59.389 84.9654 59.389 86.28C59.389 87.5946 60.4545 88.6604 61.7694 88.6604H99.0038C100.319 88.6604 101.384 87.5946 101.384 86.28C101.384 84.9654 100.318 83.8996 99.0035 83.8996Z" fill="url(#paint7_linear)" fill-opacity="0.3"/>
<path d="M99.0035 93.4221H61.7694C60.4545 93.4221 59.389 94.4879 59.389 95.8025C59.389 97.1172 60.4545 98.183 61.7694 98.183H99.0038C100.319 98.183 101.384 97.1172 101.384 95.8025C101.384 94.4879 100.318 93.4221 99.0035 93.4221Z" fill="#2e7d32"/>
<path d="M99.0035 93.4221H61.7694C60.4545 93.4221 59.389 94.4879 59.389 95.8025C59.389 97.1172 60.4545 98.183 61.7694 98.183H99.0038C100.319 98.183 101.384 97.1172 101.384 95.8025C101.384 94.4879 100.318 93.4221 99.0035 93.4221Z" fill="url(#paint8_linear)" fill-opacity="0.3"/>
<path d="M61.7694 107.704H86.3081C87.623 107.704 88.6885 106.639 88.6885 105.324C88.6885 104.009 87.623 102.944 86.3081 102.944H61.7694C60.4545 102.944 59.389 104.009 59.389 105.324C59.389 106.639 60.4545 107.704 61.7694 107.704V107.704Z" fill="#2e7d32"/>
<path d="M61.7694 107.704H86.3081C87.623 107.704 88.6885 106.639 88.6885 105.324C88.6885 104.009 87.623 102.944 86.3081 102.944H61.7694C60.4545 102.944 59.389 104.009 59.389 105.324C59.389 106.639 60.4545 107.704 61.7694 107.704V107.704Z" fill="url(#paint9_linear)" fill-opacity="0.3"/>
<path d="M86.3078 131.508H61.7692C60.4542 131.508 59.3887 132.574 59.3887 133.889C59.3887 135.204 60.4542 136.269 61.7692 136.269H86.3078C87.6228 136.269 88.6882 135.204 88.6882 133.889C88.6882 132.574 87.6228 131.508 86.3078 131.508Z" fill="#2e7d32"/>
<path d="M86.3078 131.508H61.7692C60.4542 131.508 59.3887 132.574 59.3887 133.889C59.3887 135.204 60.4542 136.269 61.7692 136.269H86.3078C87.6228 136.269 88.6882 135.204 88.6882 133.889C88.6882 132.574 87.6228 131.508 86.3078 131.508Z" fill="url(#paint10_linear)" fill-opacity="0.3"/>
<path d="M99.0035 121.987H61.7694C60.4545 121.987 59.389 123.053 59.389 124.367C59.389 125.682 60.4545 126.748 61.7694 126.748H99.0038C100.319 126.748 101.384 125.682 101.384 124.367C101.384 123.053 100.318 121.987 99.0035 121.987Z" fill="#2e7d32"/>
<path d="M99.0035 121.987H61.7694C60.4545 121.987 59.389 123.053 59.389 124.367C59.389 125.682 60.4545 126.748 61.7694 126.748H99.0038C100.319 126.748 101.384 125.682 101.384 124.367C101.384 123.053 100.318 121.987 99.0035 121.987Z" fill="url(#paint11_linear)" fill-opacity="0.3"/>
<path d="M52.2476 83.8996H15.0132C13.6983 83.8996 12.6328 84.9654 12.6328 86.28V133.889C12.6328 135.204 13.6983 136.269 15.0132 136.269H52.2476C53.5625 136.269 54.628 135.204 54.628 133.889V86.28C54.628 84.9654 53.5622 83.8996 52.2476 83.8996ZM49.8671 131.509H17.3937V88.6604H49.8671V131.509Z" fill="#2e7d32"/>
<path d="M52.2476 83.8996H15.0132C13.6983 83.8996 12.6328 84.9654 12.6328 86.28V133.889C12.6328 135.204 13.6983 136.269 15.0132 136.269H52.2476C53.5625 136.269 54.628 135.204 54.628 133.889V86.28C54.628 84.9654 53.5622 83.8996 52.2476 83.8996ZM49.8671 131.509H17.3937V88.6604H49.8671V131.509Z" fill="url(#paint12_linear)" fill-opacity="0.3"/>
</g>
</g>
<defs>
<filter id="filter0_d" x="-30.063" y="-30.209" width="203.974" height="209.175" filterUnits="userSpaceOnUse" color-interpolation-filters="sRGB">
<feFlood flood-opacity="0" result="BackgroundImageFix"/>
<feColorMatrix in="SourceAlpha" type="matrix" values="0 0 0 0 0 0 0 0 0 0 0 0 0 0 0 0 0 0 127 0"/>
<feOffset/>
<feGaussianBlur stdDeviation="15"/>
<feColorMatrix type="matrix" values="0 0 0 0 0.156863 0 0 0 0 0.243137 0 0 0 0 0.521569 0 0 0 0.1 0"/>
<feBlend mode="normal" in2="BackgroundImageFix" result="effect1_dropShadow"/>
<feBlend mode="normal" in="SourceGraphic" in2="effect1_dropShadow" result="shape"/>
</filter>
<linearGradient id="paint0_linear" x1="-10.6853" y1="-0.208985" x2="168.48" y2="112.584" gradientUnits="userSpaceOnUse">
<stop stop-color="#2e7d32"/>
<stop offset="1" stop-color="#1D3479"/>
</linearGradient>
<linearGradient id="paint1_linear" x1="6.0848" y1="12.4861" x2="36.2808" y2="73.6819" gradientUnits="userSpaceOnUse">
<stop stop-color="#2e7d32"/>
<stop offset="1" stop-color="#1D3479"/>
</linearGradient>
<linearGradient id="paint2_linear" x1="6.0848" y1="45.8131" x2="7.12079" y2="58.4105" gradientUnits="userSpaceOnUse">
<stop stop-color="#2e7d32"/>
<stop offset="1" stop-color="#1D3479"/>
</linearGradient>
<linearGradient id="paint3_linear" x1="56.2906" y1="64.8566" x2="58.4302" y2="77.1673" gradientUnits="userSpaceOnUse">
<stop stop-color="#2e7d32"/>
<stop offset="1" stop-color="#1D3479"/>
</linearGradient>
<linearGradient id="paint4_linear" x1="9.53441" y1="64.8566" x2="11.674" y2="77.1673" gradientUnits="userSpaceOnUse">
<stop stop-color="#2e7d32"/>
<stop offset="1" stop-color="#1D3479"/>
</linearGradient>
<linearGradient id="paint5_linear" x1="56.2906" y1="74.3781" x2="58.4302" y2="86.6888" gradientUnits="userSpaceOnUse">
<stop stop-color="#2e7d32"/>
<stop offset="1" stop-color="#1D3479"/>
</linearGradient>
<linearGradient id="paint6_linear" x1="9.53441" y1="74.3781" x2="11.674" y2="86.6888" gradientUnits="userSpaceOnUse">
<stop stop-color="#2e7d32"/>
<stop offset="1" stop-color="#1D3479"/>
</linearGradient>
<linearGradient id="paint7_linear" x1="56.2906" y1="83.8996" x2="58.4302" y2="96.2103" gradientUnits="userSpaceOnUse">
<stop stop-color="#2e7d32"/>
<stop offset="1" stop-color="#1D3479"/>
</linearGradient>
<linearGradient id="paint8_linear" x1="56.2906" y1="93.4221" x2="58.4302" y2="105.733" gradientUnits="userSpaceOnUse">
<stop stop-color="#2e7d32"/>
<stop offset="1" stop-color="#1D3479"/>
</linearGradient>
<linearGradient id="paint9_linear" x1="57.2273" y1="102.944" x2="60.202" y2="114.885" gradientUnits="userSpaceOnUse">
<stop stop-color="#2e7d32"/>
<stop offset="1" stop-color="#1D3479"/>
</linearGradient>
<linearGradient id="paint10_linear" x1="57.227" y1="131.508" x2="60.2018" y2="143.45" gradientUnits="userSpaceOnUse">
<stop stop-color="#2e7d32"/>
<stop offset="1" stop-color="#1D3479"/>
</linearGradient>
<linearGradient id="paint11_linear" x1="56.2906" y1="121.987" x2="58.4302" y2="134.298" gradientUnits="userSpaceOnUse">
<stop stop-color="#2e7d32"/>
<stop offset="1" stop-color="#1D3479"/>
</linearGradient>
<linearGradient id="paint12_linear" x1="9.53441" y1="83.8996" x2="66.8305" y2="113.869" gradientUnits="userSpaceOnUse">
<stop stop-color="#2e7d32"/>
<stop offset="1" stop-color="#1D3479"/>
</linearGradient>
</defs>
</svg>
