<svg width="42" height="49" viewBox="0 0 42 49" fill="none" xmlns="http://www.w3.org/2000/svg">
<rect opacity="0.03" y="0.491699" width="41.9329" height="41.9329" rx="20.9664" fill="#2e7d32"/>
<path d="M37.9734 37.8675L37.9737 37.8674L32.6167 21.7966L34.0989 22.093C34.1328 22.0998 34.1666 22.103 34.2 22.103C34.4394 22.103 34.6534 21.9345 34.7022 21.6907C34.7577 21.4131 34.5777 21.143 34.3 21.0875L22.0953 18.6466C22.0168 18.0289 21.5869 17.5196 21.0127 17.326V16.6585C21.0127 16.3753 20.7831 16.1458 20.5 16.1458C20.2169 16.1458 19.9873 16.3753 19.9873 16.6585V17.326C19.6133 17.4521 19.3006 17.712 19.1062 18.0488L6.90106 15.6077C6.62318 15.5521 6.3533 15.7323 6.29779 16.0099C6.24229 16.2876 6.42234 16.5577 6.70002 16.6132L8.52713 16.9786L3.02632 33.4836L3.02659 33.4837C3.00957 33.5347 3 33.589 3 33.6457C3 36.6478 5.68823 39.0902 8.99245 39.0902C12.2967 39.0902 14.985 36.6478 14.985 33.6457C14.985 33.5891 14.9754 33.5348 14.9584 33.4838L14.9587 33.4836L9.5234 17.1778L18.9047 19.0541C18.9832 19.6718 19.4131 20.181 19.9873 20.3747V33.7652C19.351 33.9798 18.8914 34.5818 18.8914 35.2896V44.6406H17.2292C16.3422 44.6406 15.5562 45.1727 15.2268 45.9963L14.6731 47.3805H13.9242C13.6411 47.3805 13.4115 47.61 13.4115 47.8932C13.4115 48.1763 13.6411 48.4059 13.9242 48.4059H27.0757C27.3588 48.4059 27.5884 48.1763 27.5884 47.8932C27.5884 47.61 27.3588 47.3805 27.0757 47.3805H26.3268L25.7732 45.9963C25.4438 45.1727 24.6578 44.6406 23.7708 44.6406H22.1086V35.2896C22.1086 34.5818 21.649 33.9798 21.0127 33.7652V20.3747C21.3867 20.2486 21.6994 19.9887 21.8938 19.6519L31.4745 21.568L26.0413 37.8674L26.0416 37.8676C26.0246 37.9186 26.015 37.9729 26.015 38.0295C26.015 41.0316 28.7033 43.474 32.0075 43.474C35.3118 43.474 38 41.0316 38 38.0295C38 37.9729 37.9904 37.9185 37.9734 37.8675ZM13.7609 33.133H12.8285C12.5454 33.133 12.3158 33.3626 12.3158 33.6457C12.3158 33.9289 12.5454 34.1584 12.8285 34.1584H13.9264C13.6399 36.3544 11.5364 38.0648 8.99245 38.0648C6.44846 38.0648 4.34511 36.3544 4.05861 34.1584H10.6363C10.9194 34.1584 11.149 33.9289 11.149 33.6457C11.149 33.3626 10.9194 33.133 10.6363 33.133H4.22404L8.99245 18.8277L13.7609 33.133ZM23.7709 45.6659C24.2361 45.6659 24.6484 45.9451 24.8212 46.377L25.2225 47.3804H15.7775L16.1789 46.377C16.3517 45.9451 16.764 45.6659 17.2292 45.6659H23.7709ZM21.0832 35.2896V44.6406H19.9168V35.2896C19.9168 34.968 20.1784 34.7064 20.5 34.7064C20.8216 34.7064 21.0832 34.968 21.0832 35.2896ZM20.5 19.4336C20.1784 19.4336 19.9168 19.1719 19.9168 18.8503C19.9168 18.5287 20.1784 18.267 20.5 18.267C20.8216 18.267 21.0832 18.5287 21.0832 18.8503C21.0832 19.1718 20.8216 19.4336 20.5 19.4336ZM32.0075 42.4486C29.4636 42.4486 27.3602 40.7383 27.0736 38.5422H33.6513C33.9345 38.5422 34.164 38.3127 34.164 38.0295C34.164 37.7463 33.9345 37.5168 33.6513 37.5168H27.2391L32.0075 23.2115L36.776 37.5168H35.8435C35.5604 37.5168 35.3308 37.7463 35.3308 38.0295C35.3308 38.3127 35.5604 38.5422 35.8435 38.5422H36.9414C36.6549 40.7383 34.5515 42.4486 32.0075 42.4486Z" fill="#2e7d32"/>
<path d="M37.9734 37.8675L37.9737 37.8674L32.6167 21.7966L34.0989 22.093C34.1328 22.0998 34.1666 22.103 34.2 22.103C34.4394 22.103 34.6534 21.9345 34.7022 21.6907C34.7577 21.4131 34.5777 21.143 34.3 21.0875L22.0953 18.6466C22.0168 18.0289 21.5869 17.5196 21.0127 17.326V16.6585C21.0127 16.3753 20.7831 16.1458 20.5 16.1458C20.2169 16.1458 19.9873 16.3753 19.9873 16.6585V17.326C19.6133 17.4521 19.3006 17.712 19.1062 18.0488L6.90106 15.6077C6.62318 15.5521 6.3533 15.7323 6.29779 16.0099C6.24229 16.2876 6.42234 16.5577 6.70002 16.6132L8.52713 16.9786L3.02632 33.4836L3.02659 33.4837C3.00957 33.5347 3 33.589 3 33.6457C3 36.6478 5.68823 39.0902 8.99245 39.0902C12.2967 39.0902 14.985 36.6478 14.985 33.6457C14.985 33.5891 14.9754 33.5348 14.9584 33.4838L14.9587 33.4836L9.5234 17.1778L18.9047 19.0541C18.9832 19.6718 19.4131 20.181 19.9873 20.3747V33.7652C19.351 33.9798 18.8914 34.5818 18.8914 35.2896V44.6406H17.2292C16.3422 44.6406 15.5562 45.1727 15.2268 45.9963L14.6731 47.3805H13.9242C13.6411 47.3805 13.4115 47.61 13.4115 47.8932C13.4115 48.1763 13.6411 48.4059 13.9242 48.4059H27.0757C27.3588 48.4059 27.5884 48.1763 27.5884 47.8932C27.5884 47.61 27.3588 47.3805 27.0757 47.3805H26.3268L25.7732 45.9963C25.4438 45.1727 24.6578 44.6406 23.7708 44.6406H22.1086V35.2896C22.1086 34.5818 21.649 33.9798 21.0127 33.7652V20.3747C21.3867 20.2486 21.6994 19.9887 21.8938 19.6519L31.4745 21.568L26.0413 37.8674L26.0416 37.8676C26.0246 37.9186 26.015 37.9729 26.015 38.0295C26.015 41.0316 28.7033 43.474 32.0075 43.474C35.3118 43.474 38 41.0316 38 38.0295C38 37.9729 37.9904 37.9185 37.9734 37.8675ZM13.7609 33.133H12.8285C12.5454 33.133 12.3158 33.3626 12.3158 33.6457C12.3158 33.9289 12.5454 34.1584 12.8285 34.1584H13.9264C13.6399 36.3544 11.5364 38.0648 8.99245 38.0648C6.44846 38.0648 4.34511 36.3544 4.05861 34.1584H10.6363C10.9194 34.1584 11.149 33.9289 11.149 33.6457C11.149 33.3626 10.9194 33.133 10.6363 33.133H4.22404L8.99245 18.8277L13.7609 33.133ZM23.7709 45.6659C24.2361 45.6659 24.6484 45.9451 24.8212 46.377L25.2225 47.3804H15.7775L16.1789 46.377C16.3517 45.9451 16.764 45.6659 17.2292 45.6659H23.7709ZM21.0832 35.2896V44.6406H19.9168V35.2896C19.9168 34.968 20.1784 34.7064 20.5 34.7064C20.8216 34.7064 21.0832 34.968 21.0832 35.2896ZM20.5 19.4336C20.1784 19.4336 19.9168 19.1719 19.9168 18.8503C19.9168 18.5287 20.1784 18.267 20.5 18.267C20.8216 18.267 21.0832 18.5287 21.0832 18.8503C21.0832 19.1718 20.8216 19.4336 20.5 19.4336ZM32.0075 42.4486C29.4636 42.4486 27.3602 40.7383 27.0736 38.5422H33.6513C33.9345 38.5422 34.164 38.3127 34.164 38.0295C34.164 37.7463 33.9345 37.5168 33.6513 37.5168H27.2391L32.0075 23.2115L36.776 37.5168H35.8435C35.5604 37.5168 35.3308 37.7463 35.3308 38.0295C35.3308 38.3127 35.5604 38.5422 35.8435 38.5422H36.9414C36.6549 40.7383 34.5515 42.4486 32.0075 42.4486Z" fill="url(#paint0_linear)" fill-opacity="0.3"/>
<path d="M33.466 31.8994C33.2658 31.6992 32.9411 31.6992 32.741 31.8994L32.0075 32.6329L31.2741 31.8994C31.0739 31.6992 30.7493 31.6992 30.5491 31.8994C30.3489 32.0997 30.3489 32.4243 30.5491 32.6245L31.2825 33.3579L30.5491 34.0913C30.3489 34.2915 30.3489 34.6162 30.5491 34.8163C30.6492 34.9165 30.7804 34.9665 30.9116 34.9665C31.0428 34.9665 31.174 34.9165 31.2741 34.8163L32.0075 34.0829L32.741 34.8163C32.841 34.9165 32.9723 34.9665 33.1035 34.9665C33.2347 34.9665 33.3659 34.9165 33.466 34.8163C33.6662 34.6161 33.6662 34.2915 33.466 34.0913L32.7326 33.3579L33.466 32.6245C33.6662 32.4243 33.6662 32.0997 33.466 31.8994Z" fill="#2e7d32"/>
<path d="M33.466 31.8994C33.2658 31.6992 32.9411 31.6992 32.741 31.8994L32.0075 32.6329L31.2741 31.8994C31.0739 31.6992 30.7493 31.6992 30.5491 31.8994C30.3489 32.0997 30.3489 32.4243 30.5491 32.6245L31.2825 33.3579L30.5491 34.0913C30.3489 34.2915 30.3489 34.6162 30.5491 34.8163C30.6492 34.9165 30.7804 34.9665 30.9116 34.9665C31.0428 34.9665 31.174 34.9165 31.2741 34.8163L32.0075 34.0829L32.741 34.8163C32.841 34.9165 32.9723 34.9665 33.1035 34.9665C33.2347 34.9665 33.3659 34.9165 33.466 34.8163C33.6662 34.6161 33.6662 34.2915 33.466 34.0913L32.7326 33.3579L33.466 32.6245C33.6662 32.4243 33.6662 32.0997 33.466 31.8994Z" fill="url(#paint1_linear)" fill-opacity="0.3"/>
<path d="M10.2739 28.2832L8.44455 30.1126L7.71113 29.3792C7.5109 29.1789 7.18626 29.1789 6.98611 29.3792C6.78588 29.5794 6.78588 29.904 6.98611 30.1042L8.08204 31.2001C8.18212 31.3003 8.31337 31.3503 8.44455 31.3503C8.57574 31.3503 8.70699 31.3003 8.80707 31.2001L10.9989 29.0082C11.1992 28.808 11.1992 28.4834 10.9989 28.2832C10.7988 28.083 10.4741 28.083 10.2739 28.2832Z" fill="#2e7d32"/>
<path d="M10.2739 28.2832L8.44455 30.1126L7.71113 29.3792C7.5109 29.1789 7.18626 29.1789 6.98611 29.3792C6.78588 29.5794 6.78588 29.904 6.98611 30.1042L8.08204 31.2001C8.18212 31.3003 8.31337 31.3503 8.44455 31.3503C8.57574 31.3503 8.70699 31.3003 8.80707 31.2001L10.9989 29.0082C11.1992 28.808 11.1992 28.4834 10.9989 28.2832C10.7988 28.083 10.4741 28.083 10.2739 28.2832Z" fill="url(#paint2_linear)" fill-opacity="0.3"/>
<defs>
<linearGradient id="paint0_linear" x1="0.41772" y1="15.5977" x2="41.3933" y2="44.1111" gradientUnits="userSpaceOnUse">
<stop stop-color="#2e7d32"/>
<stop offset="1" stop-color="#1D3479"/>
</linearGradient>
<linearGradient id="paint1_linear" x1="30.1616" y1="31.7493" x2="34.0833" y2="34.3074" gradientUnits="userSpaceOnUse">
<stop stop-color="#2e7d32"/>
<stop offset="1" stop-color="#1D3479"/>
</linearGradient>
<linearGradient id="paint2_linear" x1="6.51771" y1="28.1331" x2="10.7647" y2="31.847" gradientUnits="userSpaceOnUse">
<stop stop-color="#2e7d32"/>
<stop offset="1" stop-color="#1D3479"/>
</linearGradient>
</defs>
</svg>
