<svg width="43" height="48" viewBox="0 0 43 48" fill="none" xmlns="http://www.w3.org/2000/svg">
<path d="M38.9546 18.0972H19.6971C17.9501 18.0972 16.5289 19.5185 16.5289 21.2654V23.2324H15.8456C15.514 23.2324 15.2451 23.5013 15.2451 23.833C15.2451 24.1647 15.514 24.4336 15.8456 24.4336H16.5289V34.1037C16.5289 35.8506 17.9502 37.2719 19.6971 37.2719H25.5156V39.239C25.5156 40.3237 24.6332 41.206 23.5486 41.206H11.9938C11.8313 41.206 11.6776 41.2717 11.5658 41.3853C11.4895 41.4618 9.60324 43.3481 6.24284 46.7085C6.23243 46.7189 6.22346 46.7278 6.19968 46.718C6.17549 46.708 6.17549 46.6951 6.17549 46.6801C6.17549 44.7924 6.17549 41.8432 6.17549 41.8076C6.17549 41.8073 6.17549 41.8069 6.17549 41.8066C6.17549 41.4749 5.90659 41.206 5.57491 41.206H4.29101C3.20644 41.2062 2.32397 40.3237 2.32397 39.2391V26.4008C2.32397 25.3161 3.20644 24.4337 4.29101 24.4337H13.2776C13.6093 24.4337 13.8782 24.1648 13.8782 23.8332C13.8782 23.5015 13.6093 23.2326 13.2776 23.2326H4.29101C2.54411 23.2325 1.1228 24.6538 1.1228 26.4008V39.2392C1.1228 40.9861 2.54411 42.4074 4.29101 42.4074H4.97424V46.6803C4.97424 47.1847 5.27477 47.6352 5.73995 47.8279C5.89402 47.8918 6.05529 47.9228 6.21513 47.9228C6.53753 47.9228 6.85383 47.7965 7.09215 47.5581L12.2426 42.4074H23.5485C25.2955 42.4074 26.7167 40.9861 26.7167 39.2392V37.2721H31.0027L36.1501 42.4195C36.3884 42.6578 36.7047 42.7841 37.0274 42.7841C37.1877 42.7841 37.3496 42.7529 37.5042 42.6888C37.9702 42.4959 38.2713 42.0453 38.2713 41.5409V37.272H38.9545C40.7015 37.272 42.1227 35.8507 42.1227 34.1038V21.2655C42.1228 19.5185 40.7015 18.0972 38.9546 18.0972ZM40.9216 34.1037C40.9216 35.1884 40.0392 36.0708 38.9546 36.0708H37.6708C37.3391 36.0708 37.0702 36.3397 37.0702 36.6714V41.5408C37.0702 41.555 37.0702 41.5685 37.0446 41.579C37.0193 41.5895 37.0097 41.5802 36.9996 41.5701L31.6762 36.2467C31.5636 36.1341 31.4108 36.0708 31.2516 36.0708H19.6971C18.6124 36.0708 17.73 35.1883 17.73 34.1037V21.2655C17.73 20.1808 18.6125 19.2984 19.6971 19.2984H38.9546C40.0393 19.2984 40.9216 20.1809 40.9216 21.2655V34.1037Z" fill="#2e7d32"/>
<path d="M38.9546 18.0972H19.6971C17.9501 18.0972 16.5289 19.5185 16.5289 21.2654V23.2324H15.8456C15.514 23.2324 15.2451 23.5013 15.2451 23.833C15.2451 24.1647 15.514 24.4336 15.8456 24.4336H16.5289V34.1037C16.5289 35.8506 17.9502 37.2719 19.6971 37.2719H25.5156V39.239C25.5156 40.3237 24.6332 41.206 23.5486 41.206H11.9938C11.8313 41.206 11.6776 41.2717 11.5658 41.3853C11.4895 41.4618 9.60324 43.3481 6.24284 46.7085C6.23243 46.7189 6.22346 46.7278 6.19968 46.718C6.17549 46.708 6.17549 46.6951 6.17549 46.6801C6.17549 44.7924 6.17549 41.8432 6.17549 41.8076C6.17549 41.8073 6.17549 41.8069 6.17549 41.8066C6.17549 41.4749 5.90659 41.206 5.57491 41.206H4.29101C3.20644 41.2062 2.32397 40.3237 2.32397 39.2391V26.4008C2.32397 25.3161 3.20644 24.4337 4.29101 24.4337H13.2776C13.6093 24.4337 13.8782 24.1648 13.8782 23.8332C13.8782 23.5015 13.6093 23.2326 13.2776 23.2326H4.29101C2.54411 23.2325 1.1228 24.6538 1.1228 26.4008V39.2392C1.1228 40.9861 2.54411 42.4074 4.29101 42.4074H4.97424V46.6803C4.97424 47.1847 5.27477 47.6352 5.73995 47.8279C5.89402 47.8918 6.05529 47.9228 6.21513 47.9228C6.53753 47.9228 6.85383 47.7965 7.09215 47.5581L12.2426 42.4074H23.5485C25.2955 42.4074 26.7167 40.9861 26.7167 39.2392V37.2721H31.0027L36.1501 42.4195C36.3884 42.6578 36.7047 42.7841 37.0274 42.7841C37.1877 42.7841 37.3496 42.7529 37.5042 42.6888C37.9702 42.4959 38.2713 42.0453 38.2713 41.5409V37.272H38.9545C40.7015 37.272 42.1227 35.8507 42.1227 34.1038V21.2655C42.1228 19.5185 40.7015 18.0972 38.9546 18.0972ZM40.9216 34.1037C40.9216 35.1884 40.0392 36.0708 38.9546 36.0708H37.6708C37.3391 36.0708 37.0702 36.3397 37.0702 36.6714V41.5408C37.0702 41.555 37.0702 41.5685 37.0446 41.579C37.0193 41.5895 37.0097 41.5802 36.9996 41.5701L31.6762 36.2467C31.5636 36.1341 31.4108 36.0708 31.2516 36.0708H19.6971C18.6124 36.0708 17.73 35.1883 17.73 34.1037V21.2655C17.73 20.1808 18.6125 19.2984 19.6971 19.2984H38.9546C40.0393 19.2984 40.9216 20.1809 40.9216 21.2655V34.1037Z" fill="url(#paint0_linear)" fill-opacity="0.3"/>
<path d="M29.3259 21.9487C29.3258 21.9487 29.3256 21.9487 29.3256 21.9487C28.1158 21.9488 27.0049 22.5043 26.2776 23.4727C26.0784 23.7379 26.1319 24.1144 26.3972 24.3136C26.6625 24.5128 27.0388 24.4593 27.2381 24.194C27.7363 23.5306 28.4972 23.15 29.3256 23.15C30.0044 23.1499 30.6547 23.4263 31.1566 23.9283C31.6585 24.4302 31.9349 25.0804 31.9349 25.7592C31.9348 26.9028 31.1707 27.9305 30.0767 28.2586C29.2684 28.501 28.7253 29.2252 28.7253 30.0607V30.2524C28.7253 30.5841 28.9942 30.853 29.3259 30.853C29.6575 30.853 29.9264 30.5841 29.9264 30.2524V30.0607C29.9264 29.7598 30.1254 29.4979 30.4217 29.4091C32.0198 28.9299 33.136 27.4291 33.1361 25.7593C33.1361 24.7596 32.7348 23.8077 32.006 23.079C31.2772 22.35 30.3255 21.9487 29.3259 21.9487Z" fill="#2e7d32"/>
<path d="M29.3259 21.9487C29.3258 21.9487 29.3256 21.9487 29.3256 21.9487C28.1158 21.9488 27.0049 22.5043 26.2776 23.4727C26.0784 23.7379 26.1319 24.1144 26.3972 24.3136C26.6625 24.5128 27.0388 24.4593 27.2381 24.194C27.7363 23.5306 28.4972 23.15 29.3256 23.15C30.0044 23.1499 30.6547 23.4263 31.1566 23.9283C31.6585 24.4302 31.9349 25.0804 31.9349 25.7592C31.9348 26.9028 31.1707 27.9305 30.0767 28.2586C29.2684 28.501 28.7253 29.2252 28.7253 30.0607V30.2524C28.7253 30.5841 28.9942 30.853 29.3259 30.853C29.6575 30.853 29.9264 30.5841 29.9264 30.2524V30.0607C29.9264 29.7598 30.1254 29.4979 30.4217 29.4091C32.0198 28.9299 33.136 27.4291 33.1361 25.7593C33.1361 24.7596 32.7348 23.8077 32.006 23.079C31.2772 22.35 30.3255 21.9487 29.3259 21.9487Z" fill="url(#paint1_linear)" fill-opacity="0.3"/>
<path d="M29.3257 32.2194H29.3193C28.9876 32.2194 28.7219 32.4883 28.7219 32.82C28.7219 33.1516 28.994 33.4205 29.3257 33.4205C29.6574 33.4205 29.9263 33.1516 29.9263 32.82C29.9263 32.4883 29.6574 32.2194 29.3257 32.2194Z" fill="#2e7d32"/>
<path d="M29.3257 32.2194H29.3193C28.9876 32.2194 28.7219 32.4883 28.7219 32.82C28.7219 33.1516 28.994 33.4205 29.3257 33.4205C29.6574 33.4205 29.9263 33.1516 29.9263 32.82C29.9263 32.4883 29.6574 32.2194 29.3257 32.2194Z" fill="url(#paint2_linear)" fill-opacity="0.3"/>
<path d="M13.3193 27.6846V35.3876C13.3193 35.7193 13.5882 35.9882 13.9199 35.9882C14.2516 35.9882 14.5205 35.7193 14.5205 35.3876V27.6846C14.5205 27.3529 14.2516 27.084 13.9199 27.084C13.5882 27.084 13.3193 27.3529 13.3193 27.6846Z" fill="#2e7d32"/>
<path d="M13.3193 27.6846V35.3876C13.3193 35.7193 13.5882 35.9882 13.9199 35.9882C14.2516 35.9882 14.5205 35.7193 14.5205 35.3876V27.6846C14.5205 27.3529 14.2516 27.084 13.9199 27.084C13.5882 27.084 13.3193 27.3529 13.3193 27.6846Z" fill="url(#paint3_linear)" fill-opacity="0.3"/>
<path d="M13.9263 37.3546H13.9199C13.5882 37.3546 13.3225 37.6235 13.3225 37.9552C13.3225 38.2869 13.5946 38.5558 13.9263 38.5558C14.258 38.5558 14.5269 38.2869 14.5269 37.9552C14.5269 37.6235 14.258 37.3546 13.9263 37.3546Z" fill="#2e7d32"/>
<path d="M13.9263 37.3546H13.9199C13.5882 37.3546 13.3225 37.6235 13.3225 37.9552C13.3225 38.2869 13.5946 38.5558 13.9263 38.5558C14.258 38.5558 14.5269 38.2869 14.5269 37.9552C14.5269 37.6235 14.258 37.3546 13.9263 37.3546Z" fill="url(#paint4_linear)" fill-opacity="0.3"/>
<rect opacity="0.03" width="41.9329" height="41.9329" rx="20.9664" fill="#2e7d32"/>
<defs>
<linearGradient id="paint0_linear" x1="-1.90215" y1="18.0972" x2="37.5891" y2="53.5077" gradientUnits="userSpaceOnUse">
<stop stop-color="#2e7d32"/>
<stop offset="1" stop-color="#1D3479"/>
</linearGradient>
<linearGradient id="paint1_linear" x1="25.6423" y1="21.9487" x2="35.2562" y2="26.8637" gradientUnits="userSpaceOnUse">
<stop stop-color="#2e7d32"/>
<stop offset="1" stop-color="#1D3479"/>
</linearGradient>
<linearGradient id="paint2_linear" x1="28.6331" y1="32.2194" x2="30.0988" y2="33.178" gradientUnits="userSpaceOnUse">
<stop stop-color="#2e7d32"/>
<stop offset="1" stop-color="#1D3479"/>
</linearGradient>
<linearGradient id="paint3_linear" x1="13.2307" y1="27.084" x2="15.3019" y2="27.2662" gradientUnits="userSpaceOnUse">
<stop stop-color="#2e7d32"/>
<stop offset="1" stop-color="#1D3479"/>
</linearGradient>
<linearGradient id="paint4_linear" x1="13.2337" y1="37.3546" x2="14.6994" y2="38.3133" gradientUnits="userSpaceOnUse">
<stop stop-color="#2e7d32"/>
<stop offset="1" stop-color="#1D3479"/>
</linearGradient>
</defs>
</svg>
