<svg width="42" height="49" viewBox="0 0 42 49" fill="none" xmlns="http://www.w3.org/2000/svg">
<path d="M11.21 27.5789H16.6787C16.8238 27.5789 16.9629 27.5212 17.0654 27.4187C17.168 27.3161 17.2256 27.177 17.2256 27.032C17.2256 26.8869 17.168 26.7478 17.0654 26.6453C16.9629 26.5427 16.8238 26.4851 16.6787 26.4851H11.21C11.0649 26.4851 10.9258 26.5427 10.8233 26.6453C10.7207 26.7478 10.6631 26.8869 10.6631 27.032C10.6631 27.177 10.7207 27.3161 10.8233 27.4187C10.9258 27.5212 11.0649 27.5789 11.21 27.5789V27.5789Z" fill="#2e7d32"/>
<path d="M11.21 27.5789H16.6787C16.8238 27.5789 16.9629 27.5212 17.0654 27.4187C17.168 27.3161 17.2256 27.177 17.2256 27.032C17.2256 26.8869 17.168 26.7478 17.0654 26.6453C16.9629 26.5427 16.8238 26.4851 16.6787 26.4851H11.21C11.0649 26.4851 10.9258 26.5427 10.8233 26.6453C10.7207 26.7478 10.6631 26.8869 10.6631 27.032C10.6631 27.177 10.7207 27.3161 10.8233 27.4187C10.9258 27.5212 11.0649 27.5789 11.21 27.5789V27.5789Z" fill="url(#paint0_linear)" fill-opacity="0.3"/>
<path d="M11.21 31.407H19.4912C19.6363 31.407 19.7754 31.3494 19.8779 31.2468C19.9805 31.1442 20.0381 31.0051 20.0381 30.8601C20.0381 30.7151 19.9805 30.576 19.8779 30.4734C19.7754 30.3708 19.6363 30.3132 19.4912 30.3132H11.21C11.0649 30.3132 10.9258 30.3708 10.8233 30.4734C10.7207 30.576 10.6631 30.7151 10.6631 30.8601C10.6631 31.0051 10.7207 31.1442 10.8233 31.2468C10.9258 31.3494 11.0649 31.407 11.21 31.407V31.407Z" fill="#2e7d32"/>
<path d="M11.21 31.407H19.4912C19.6363 31.407 19.7754 31.3494 19.8779 31.2468C19.9805 31.1442 20.0381 31.0051 20.0381 30.8601C20.0381 30.7151 19.9805 30.576 19.8779 30.4734C19.7754 30.3708 19.6363 30.3132 19.4912 30.3132H11.21C11.0649 30.3132 10.9258 30.3708 10.8233 30.4734C10.7207 30.576 10.6631 30.7151 10.6631 30.8601C10.6631 31.0051 10.7207 31.1442 10.8233 31.2468C10.9258 31.3494 11.0649 31.407 11.21 31.407V31.407Z" fill="url(#paint1_linear)" fill-opacity="0.3"/>
<path d="M11.21 35.2351H19.4912C19.6363 35.2351 19.7754 35.1775 19.8779 35.0749C19.9805 34.9724 20.0381 34.8333 20.0381 34.6882C20.0381 34.5432 19.9805 34.4041 19.8779 34.3015C19.7754 34.199 19.6363 34.1414 19.4912 34.1414H11.21C11.0649 34.1414 10.9258 34.199 10.8233 34.3015C10.7207 34.4041 10.6631 34.5432 10.6631 34.6882C10.6631 34.8333 10.7207 34.9724 10.8233 35.0749C10.9258 35.1775 11.0649 35.2351 11.21 35.2351V35.2351Z" fill="#2e7d32"/>
<path d="M11.21 35.2351H19.4912C19.6363 35.2351 19.7754 35.1775 19.8779 35.0749C19.9805 34.9724 20.0381 34.8333 20.0381 34.6882C20.0381 34.5432 19.9805 34.4041 19.8779 34.3015C19.7754 34.199 19.6363 34.1414 19.4912 34.1414H11.21C11.0649 34.1414 10.9258 34.199 10.8233 34.3015C10.7207 34.4041 10.6631 34.5432 10.6631 34.6882C10.6631 34.8333 10.7207 34.9724 10.8233 35.0749C10.9258 35.1775 11.0649 35.2351 11.21 35.2351V35.2351Z" fill="url(#paint2_linear)" fill-opacity="0.3"/>
<path d="M11.21 39.0632H24.2568C24.4019 39.0632 24.541 39.0056 24.6435 38.9031C24.7461 38.8005 24.8037 38.6614 24.8037 38.5164C24.8037 38.3713 24.7461 38.2322 24.6435 38.1297C24.541 38.0271 24.4019 37.9695 24.2568 37.9695H11.21C11.0649 37.9695 10.9258 38.0271 10.8233 38.1297C10.7207 38.2322 10.6631 38.3713 10.6631 38.5164C10.6631 38.6614 10.7207 38.8005 10.8233 38.9031C10.9258 39.0056 11.0649 39.0632 11.21 39.0632V39.0632Z" fill="#2e7d32"/>
<path d="M11.21 39.0632H24.2568C24.4019 39.0632 24.541 39.0056 24.6435 38.9031C24.7461 38.8005 24.8037 38.6614 24.8037 38.5164C24.8037 38.3713 24.7461 38.2322 24.6435 38.1297C24.541 38.0271 24.4019 37.9695 24.2568 37.9695H11.21C11.0649 37.9695 10.9258 38.0271 10.8233 38.1297C10.7207 38.2322 10.6631 38.3713 10.6631 38.5164C10.6631 38.6614 10.7207 38.8005 10.8233 38.9031C10.9258 39.0056 11.0649 39.0632 11.21 39.0632V39.0632Z" fill="url(#paint3_linear)" fill-opacity="0.3"/>
<rect opacity="0.03" y="0.973511" width="42" height="41.504" rx="20.752" fill="#2e7d32"/>
<path d="M19.2876 22.0641H21.5959V24.4612C21.5959 24.845 21.951 25.1571 22.3393 25.1571H24.2956C24.6839 25.1571 24.9607 24.845 24.9607 24.4612V22.0641H27.1908C27.5792 22.0641 27.8559 21.7519 27.8559 21.3681V19.5123C27.8559 19.1285 27.5792 18.8164 27.1908 18.8164H24.9607V16.6513C24.9607 16.2675 24.6839 15.9553 24.2956 15.9553H22.3393C21.951 15.9553 21.5959 16.2675 21.5959 16.6513V18.8164H19.2876C18.8992 18.8164 18.5442 19.1285 18.5442 19.5123V21.3681C18.5442 21.7519 18.8992 22.0641 19.2876 22.0641ZM19.6397 19.8989H22.0263C22.4147 19.8989 22.6914 19.5868 22.6914 19.203V17.0379H23.8652V19.203C23.8652 19.5868 24.2202 19.8989 24.6086 19.8989H26.7604V20.9815H24.6086C24.2202 20.9815 23.8652 21.2937 23.8652 21.6774V24.0746H22.6914V21.6774C22.6914 21.2937 22.4147 20.9815 22.0263 20.9815H19.6397V19.8989Z" fill="#2e7d32"/>
<path d="M19.2876 22.0641H21.5959V24.4612C21.5959 24.845 21.951 25.1571 22.3393 25.1571H24.2956C24.6839 25.1571 24.9607 24.845 24.9607 24.4612V22.0641H27.1908C27.5792 22.0641 27.8559 21.7519 27.8559 21.3681V19.5123C27.8559 19.1285 27.5792 18.8164 27.1908 18.8164H24.9607V16.6513C24.9607 16.2675 24.6839 15.9553 24.2956 15.9553H22.3393C21.951 15.9553 21.5959 16.2675 21.5959 16.6513V18.8164H19.2876C18.8992 18.8164 18.5442 19.1285 18.5442 19.5123V21.3681C18.5442 21.7519 18.8992 22.0641 19.2876 22.0641ZM19.6397 19.8989H22.0263C22.4147 19.8989 22.6914 19.5868 22.6914 19.203V17.0379H23.8652V19.203C23.8652 19.5868 24.2202 19.8989 24.6086 19.8989H26.7604V20.9815H24.6086C24.2202 20.9815 23.8652 21.2937 23.8652 21.6774V24.0746H22.6914V21.6774C22.6914 21.2937 22.4147 20.9815 22.0263 20.9815H19.6397V19.8989Z" fill="url(#paint4_linear)" fill-opacity="0.3"/>
<path d="M31.4947 15.8779H31.4938C31.4723 14.928 31.0755 14.0241 30.3885 13.3594C29.7014 12.6947 28.7784 12.322 27.8169 12.3209H13.0726C12.9361 12.3209 12.8046 12.3712 12.7037 12.462L7.23995 17.362C7.18098 17.4117 7.13295 17.4729 7.09882 17.5417C7.06469 17.6106 7.04518 17.6856 7.0415 17.7621V41.7821C7.0415 43.7861 8.73045 45.4165 10.7584 45.4165H10.8375C10.859 46.3664 11.2557 47.2703 11.9428 47.935C12.6299 48.5997 13.5529 48.9724 14.5144 48.9735H31.4947C31.9754 48.9722 32.4512 48.877 32.8946 48.6934C33.338 48.5098 33.7404 48.2415 34.0785 47.9038C34.4166 47.566 34.6839 47.1656 34.8649 46.7255C35.0459 46.2853 35.1371 45.8142 35.1333 45.3391V19.5122C35.1371 19.0372 35.0459 18.566 34.8649 18.1259C34.6839 17.6858 34.4166 17.2853 34.0785 16.9476C33.7404 16.6099 33.338 16.3415 32.8946 16.158C32.4512 15.9744 31.9754 15.8792 31.4947 15.8779V15.8779ZM12.519 14.0574V16.4192C12.519 16.9735 12.1018 17.4244 11.5409 17.4244H8.817L12.519 14.0574ZM10.7584 44.3339C9.33423 44.3339 8.13701 43.1895 8.13701 41.7821V18.507H11.5409C12.7059 18.507 13.6145 17.5704 13.6145 16.4192V13.4035H27.8169C29.2411 13.4035 30.36 14.5479 30.36 15.9552V41.7821C30.36 43.1895 29.2411 44.3339 27.8169 44.3339H10.7584ZM34.0378 45.3391C34.0378 46.7465 32.9188 47.8909 31.4947 47.8909H14.5144C13.8433 47.8901 13.1988 47.6315 12.7172 47.1698C12.2355 46.708 11.9544 46.0793 11.9333 45.4165H27.8169C28.2977 45.4152 28.7734 45.32 29.2169 45.1364C29.6603 44.9529 30.0626 44.6845 30.4007 44.3468C30.7389 44.009 31.0061 43.6086 31.1871 43.1685C31.3682 42.7283 31.4594 42.2572 31.4555 41.7821V16.9605C32.9423 16.9605 34.0378 18.1049 34.0378 19.5122V45.3391Z" fill="#2e7d32"/>
<path d="M31.4947 15.8779H31.4938C31.4723 14.928 31.0755 14.0241 30.3885 13.3594C29.7014 12.6947 28.7784 12.322 27.8169 12.3209H13.0726C12.9361 12.3209 12.8046 12.3712 12.7037 12.462L7.23995 17.362C7.18098 17.4117 7.13295 17.4729 7.09882 17.5417C7.06469 17.6106 7.04518 17.6856 7.0415 17.7621V41.7821C7.0415 43.7861 8.73045 45.4165 10.7584 45.4165H10.8375C10.859 46.3664 11.2557 47.2703 11.9428 47.935C12.6299 48.5997 13.5529 48.9724 14.5144 48.9735H31.4947C31.9754 48.9722 32.4512 48.877 32.8946 48.6934C33.338 48.5098 33.7404 48.2415 34.0785 47.9038C34.4166 47.566 34.6839 47.1656 34.8649 46.7255C35.0459 46.2853 35.1371 45.8142 35.1333 45.3391V19.5122C35.1371 19.0372 35.0459 18.566 34.8649 18.1259C34.6839 17.6858 34.4166 17.2853 34.0785 16.9476C33.7404 16.6099 33.338 16.3415 32.8946 16.158C32.4512 15.9744 31.9754 15.8792 31.4947 15.8779V15.8779ZM12.519 14.0574V16.4192C12.519 16.9735 12.1018 17.4244 11.5409 17.4244H8.817L12.519 14.0574ZM10.7584 44.3339C9.33423 44.3339 8.13701 43.1895 8.13701 41.7821V18.507H11.5409C12.7059 18.507 13.6145 17.5704 13.6145 16.4192V13.4035H27.8169C29.2411 13.4035 30.36 14.5479 30.36 15.9552V41.7821C30.36 43.1895 29.2411 44.3339 27.8169 44.3339H10.7584ZM34.0378 45.3391C34.0378 46.7465 32.9188 47.8909 31.4947 47.8909H14.5144C13.8433 47.8901 13.1988 47.6315 12.7172 47.1698C12.2355 46.708 11.9544 46.0793 11.9333 45.4165H27.8169C28.2977 45.4152 28.7734 45.32 29.2169 45.1364C29.6603 44.9529 30.0626 44.6845 30.4007 44.3468C30.7389 44.009 31.0061 43.6086 31.1871 43.1685C31.3682 42.7283 31.4594 42.2572 31.4555 41.7821V16.9605C32.9423 16.9605 34.0378 18.1049 34.0378 19.5122V45.3391Z" fill="url(#paint5_linear)" fill-opacity="0.3"/>
<path d="M28.2082 40.9317C28.2082 40.7881 28.1505 40.6504 28.0478 40.5489C27.945 40.4474 27.8057 40.3904 27.6604 40.3904H11.2279C11.0827 40.3904 10.9433 40.4474 10.8406 40.5489C10.7379 40.6504 10.6802 40.7881 10.6802 40.9317C10.6802 41.0752 10.7379 41.2129 10.8406 41.3144C10.9433 41.4159 11.0827 41.4729 11.2279 41.4729H27.6604C27.8057 41.4729 27.945 41.4159 28.0478 41.3144C28.1505 41.2129 28.2082 41.0752 28.2082 40.9317V40.9317Z" fill="#2e7d32"/>
<path d="M28.2082 40.9317C28.2082 40.7881 28.1505 40.6504 28.0478 40.5489C27.945 40.4474 27.8057 40.3904 27.6604 40.3904H11.2279C11.0827 40.3904 10.9433 40.4474 10.8406 40.5489C10.7379 40.6504 10.6802 40.7881 10.6802 40.9317C10.6802 41.0752 10.7379 41.2129 10.8406 41.3144C10.9433 41.4159 11.0827 41.4729 11.2279 41.4729H27.6604C27.8057 41.4729 27.945 41.4159 28.0478 41.3144C28.1505 41.2129 28.2082 41.0752 28.2082 40.9317V40.9317Z" fill="url(#paint6_linear)" fill-opacity="0.3"/>
<defs>
<linearGradient id="paint0_linear" x1="10.1789" y1="26.4851" x2="10.8778" y2="29.2202" gradientUnits="userSpaceOnUse">
<stop stop-color="#2e7d32"/>
<stop offset="1" stop-color="#1D3479"/>
</linearGradient>
<linearGradient id="paint1_linear" x1="9.9714" y1="30.3132" x2="10.4764" y2="33.1366" gradientUnits="userSpaceOnUse">
<stop stop-color="#2e7d32"/>
<stop offset="1" stop-color="#1D3479"/>
</linearGradient>
<linearGradient id="paint2_linear" x1="9.9714" y1="34.1414" x2="10.4764" y2="36.9647" gradientUnits="userSpaceOnUse">
<stop stop-color="#2e7d32"/>
<stop offset="1" stop-color="#1D3479"/>
</linearGradient>
<linearGradient id="paint3_linear" x1="9.6198" y1="37.9695" x2="9.96051" y2="40.8427" gradientUnits="userSpaceOnUse">
<stop stop-color="#2e7d32"/>
<stop offset="1" stop-color="#1D3479"/>
</linearGradient>
<linearGradient id="paint4_linear" x1="17.8572" y1="15.9553" x2="29.1272" y2="23.3944" gradientUnits="userSpaceOnUse">
<stop stop-color="#2e7d32"/>
<stop offset="1" stop-color="#1D3479"/>
</linearGradient>
<linearGradient id="paint5_linear" x1="4.9689" y1="12.3209" x2="44.0215" y2="31.8448" gradientUnits="userSpaceOnUse">
<stop stop-color="#2e7d32"/>
<stop offset="1" stop-color="#1D3479"/>
</linearGradient>
<linearGradient id="paint6_linear" x1="9.38697" y1="40.3904" x2="9.6576" y2="43.2486" gradientUnits="userSpaceOnUse">
<stop stop-color="#2e7d32"/>
<stop offset="1" stop-color="#1D3479"/>
</linearGradient>
</defs>
</svg>
