<svg width="13" height="13" viewBox="0 0 13 13" fill="none" xmlns="http://www.w3.org/2000/svg">
<path d="M8.51502 7.58956L7.61188 8.13931L8.60982 8.48859C10.4185 9.12162 11.823 10.6185 12.3681 12.5H12.3055C11.5758 9.98207 9.24932 8.16666 6.5 8.16666C3.75068 8.16666 1.42421 9.9821 0.694485 12.5H0.635975C1.18374 10.6661 2.58616 9.16523 4.40054 8.48482L5.36287 8.12394L4.48494 7.58956C3.38425 6.91958 2.66666 5.72513 2.66666 4.33334C2.66666 2.22614 4.39282 0.5 6.5 0.5C8.60718 0.5 10.3333 2.22614 10.3333 4.33334C10.3333 5.72512 9.61573 6.91956 8.51502 7.58956ZM6.5 0.583342C4.43637 0.583342 2.75 2.26971 2.75 4.33334C2.75 6.39697 4.43637 8.08334 6.5 8.08334C8.56363 8.08334 10.25 6.39697 10.25 4.33334C10.25 2.26971 8.56363 0.583342 6.5 0.583342Z" stroke="#F0544F"/>
</svg>
