<svg width="86" height="21" viewBox="0 0 86 21" fill="none" xmlns="http://www.w3.org/2000/svg">
<mask id="mask0" mask-type="alpha" maskUnits="userSpaceOnUse" x="0" y="0" width="86" height="21">
<rect width="86" height="21" fill="#C4C4C4"/>
</mask>
<g mask="url(#mask0)">
<rect y="0.234985" width="38.0595" height="21" fill="#2e7d32"/>
<path d="M8.92551 18.4769C8.27217 18.4769 7.71217 18.3836 7.24551 18.1969C6.79217 17.9969 6.41217 17.7169 6.10551 17.3569C5.81217 16.9969 5.59217 16.5703 5.44551 16.0769C5.31217 15.5703 5.24551 15.0103 5.24551 14.3969V10.9169H3.92551V8.35694L5.44551 8.23694L5.84551 5.63694H8.68551V8.23694H10.9655V10.9169H8.68551V14.3369C8.68551 14.8969 8.80551 15.2836 9.04551 15.4969C9.28551 15.6969 9.56551 15.7969 9.88551 15.7969C10.0455 15.7969 10.1988 15.7836 10.3455 15.7569C10.5055 15.7169 10.6455 15.6769 10.7655 15.6369L11.2855 18.1169C11.0188 18.1969 10.6988 18.2769 10.3255 18.3569C9.95217 18.4369 9.48551 18.4769 8.92551 18.4769ZM16.8627 18.4769C16.2227 18.4769 15.6027 18.3636 15.0027 18.1369C14.4027 17.8969 13.8694 17.5569 13.4027 17.1169C12.9494 16.6636 12.5827 16.1103 12.3027 15.4569C12.036 14.8036 11.9027 14.0636 11.9027 13.2369C11.9027 12.4103 12.036 11.6703 12.3027 11.0169C12.5827 10.3636 12.9494 9.81694 13.4027 9.37694C13.8694 8.9236 14.4027 8.5836 15.0027 8.35694C15.6027 8.11694 16.2227 7.99694 16.8627 7.99694C17.5027 7.99694 18.116 8.11694 18.7027 8.35694C19.3027 8.5836 19.8294 8.9236 20.2827 9.37694C20.7494 9.81694 21.1227 10.3636 21.4027 11.0169C21.6827 11.6703 21.8227 12.4103 21.8227 13.2369C21.8227 14.0636 21.6827 14.8036 21.4027 15.4569C21.1227 16.1103 20.7494 16.6636 20.2827 17.1169C19.8294 17.5569 19.3027 17.8969 18.7027 18.1369C18.116 18.3636 17.5027 18.4769 16.8627 18.4769ZM16.8627 15.7169C17.3827 15.7169 17.7494 15.4969 17.9627 15.0569C18.1894 14.6036 18.3027 13.9969 18.3027 13.2369C18.3027 12.4769 18.1894 11.8769 17.9627 11.4369C17.7494 10.9836 17.3827 10.7569 16.8627 10.7569C16.3427 10.7569 15.9694 10.9836 15.7427 11.4369C15.5294 11.8769 15.4227 12.4769 15.4227 13.2369C15.4227 13.9969 15.5294 14.6036 15.7427 15.0569C15.9694 15.4969 16.3427 15.7169 16.8627 15.7169ZM23.6141 21.7569V8.23694H26.4141L26.6541 9.15694H26.7341C27.1074 8.81027 27.5274 8.53027 27.9941 8.31694C28.4608 8.1036 28.9474 7.99694 29.4541 7.99694C30.0408 7.99694 30.5741 8.11694 31.0541 8.35694C31.5341 8.59694 31.9408 8.93694 32.2741 9.37694C32.6208 9.81694 32.8808 10.3503 33.0541 10.9769C33.2408 11.6036 33.3341 12.3036 33.3341 13.0769C33.3341 13.9436 33.2141 14.7103 32.9741 15.3769C32.7474 16.0436 32.4408 16.6103 32.0541 17.0769C31.6674 17.5303 31.2208 17.8769 30.7141 18.1169C30.2208 18.3569 29.7074 18.4769 29.1741 18.4769C28.3474 18.4769 27.6008 18.1436 26.9341 17.4769L27.0541 18.9969V21.7569H23.6141ZM28.3341 15.6769C28.7341 15.6769 29.0808 15.4903 29.3741 15.1169C29.6674 14.7436 29.8141 14.0769 29.8141 13.1169C29.8141 12.2903 29.6941 11.6969 29.4541 11.3369C29.2274 10.9769 28.8808 10.7969 28.4141 10.7969C28.1474 10.7969 27.9074 10.8503 27.6941 10.9569C27.4941 11.0636 27.2808 11.2503 27.0541 11.5169V15.1969C27.2541 15.3836 27.4608 15.5103 27.6741 15.5769C27.8874 15.6436 28.1074 15.6769 28.3341 15.6769Z" fill="white"/>
<path d="M46.7341 18.4769C46.0007 18.4769 45.3207 18.3636 44.6941 18.1369C44.0674 17.8969 43.5207 17.5569 43.0541 17.1169C42.6007 16.6636 42.2407 16.1103 41.9741 15.4569C41.7074 14.8036 41.5741 14.0636 41.5741 13.2369C41.5741 12.4236 41.7074 11.6969 41.9741 11.0569C42.2541 10.4036 42.6141 9.85027 43.0541 9.39694C43.5074 8.9436 44.0207 8.59694 44.5941 8.35694C45.1674 8.11694 45.7607 7.99694 46.3741 7.99694C47.1074 7.99694 47.7474 8.1236 48.2941 8.37694C48.8407 8.63027 49.2941 8.97694 49.6541 9.41694C50.0141 9.85694 50.2807 10.3703 50.4541 10.9569C50.6407 11.5436 50.7341 12.1703 50.7341 12.8369C50.7341 13.1436 50.7141 13.4303 50.6741 13.6969C50.6474 13.9636 50.6207 14.1569 50.5941 14.2769H44.8941C45.0541 14.8769 45.3407 15.2969 45.7541 15.5369C46.1674 15.7636 46.6541 15.8769 47.2141 15.8769C47.5607 15.8769 47.8941 15.8303 48.2141 15.7369C48.5474 15.6303 48.8941 15.4769 49.2541 15.2769L50.3741 17.3169C49.8274 17.7036 49.2207 17.9969 48.5541 18.1969C47.9007 18.3836 47.2941 18.4769 46.7341 18.4769ZM44.8541 12.0369H47.8141C47.8141 11.6503 47.7141 11.3169 47.5141 11.0369C47.3274 10.7436 46.9741 10.5969 46.4541 10.5969C46.0674 10.5969 45.7274 10.7103 45.4341 10.9369C45.1541 11.1636 44.9607 11.5303 44.8541 12.0369ZM55.7014 18.4769C55.0614 18.4769 54.3814 18.3503 53.6614 18.0969C52.9548 17.8436 52.3414 17.5036 51.8214 17.0769L53.3414 14.9569C54.2481 15.6236 55.0614 15.9569 55.7814 15.9569C56.1414 15.9569 56.3948 15.9103 56.5414 15.8169C56.7014 15.7103 56.7814 15.5569 56.7814 15.3569C56.7814 15.2236 56.7281 15.1103 56.6214 15.0169C56.5148 14.9103 56.3681 14.8169 56.1814 14.7369C56.0081 14.6436 55.8081 14.5569 55.5814 14.4769C55.3548 14.3969 55.1148 14.3036 54.8614 14.1969C54.5681 14.0769 54.2681 13.9369 53.9614 13.7769C53.6681 13.6036 53.4014 13.3969 53.1614 13.1569C52.9214 12.9169 52.7214 12.6436 52.5614 12.3369C52.4148 12.0169 52.3414 11.6503 52.3414 11.2369C52.3414 10.7436 52.4348 10.2969 52.6214 9.89694C52.8214 9.49694 53.0948 9.15694 53.4414 8.87694C53.7881 8.59694 54.2014 8.3836 54.6814 8.23694C55.1748 8.07694 55.7148 7.99694 56.3014 7.99694C57.1281 7.99694 57.8348 8.13694 58.4214 8.41694C59.0214 8.6836 59.5414 8.9836 59.9814 9.31694L58.4614 11.3569C58.1014 11.0903 57.7481 10.8836 57.4014 10.7369C57.0548 10.5903 56.7281 10.5169 56.4214 10.5169C55.8348 10.5169 55.5414 10.7036 55.5414 11.0769C55.5414 11.2103 55.5881 11.3236 55.6814 11.4169C55.7881 11.5103 55.9281 11.5969 56.1014 11.6769C56.2748 11.7569 56.4748 11.8369 56.7014 11.9169C56.9281 11.9836 57.1681 12.0636 57.4214 12.1569C57.7148 12.2636 58.0148 12.3969 58.3214 12.5569C58.6281 12.7169 58.9014 12.9169 59.1414 13.1569C59.3948 13.3836 59.5948 13.6636 59.7414 13.9969C59.9014 14.3169 59.9814 14.7036 59.9814 15.1569C59.9814 15.6236 59.8881 16.0636 59.7014 16.4769C59.5148 16.8769 59.2414 17.2303 58.8814 17.5369C58.5214 17.8303 58.0748 18.0636 57.5414 18.2369C57.0081 18.3969 56.3948 18.4769 55.7014 18.4769ZM65.3938 18.4769C64.7404 18.4769 64.1804 18.3836 63.7138 18.1969C63.2604 17.9969 62.8804 17.7169 62.5738 17.3569C62.2804 16.9969 62.0604 16.5703 61.9138 16.0769C61.7804 15.5703 61.7138 15.0103 61.7138 14.3969V10.9169H60.3938V8.35694L61.9138 8.23694L62.3138 5.63694H65.1538V8.23694H67.4338V10.9169H65.1538V14.3369C65.1538 14.8969 65.2738 15.2836 65.5138 15.4969C65.7538 15.6969 66.0338 15.7969 66.3538 15.7969C66.5138 15.7969 66.6671 15.7836 66.8138 15.7569C66.9738 15.7169 67.1138 15.6769 67.2338 15.6369L67.7538 18.1169C67.4871 18.1969 67.1671 18.2769 66.7938 18.3569C66.4204 18.4369 65.9538 18.4769 65.3938 18.4769ZM73.531 18.4769C72.7976 18.4769 72.1176 18.3636 71.491 18.1369C70.8643 17.8969 70.3176 17.5569 69.851 17.1169C69.3976 16.6636 69.0376 16.1103 68.771 15.4569C68.5043 14.8036 68.371 14.0636 68.371 13.2369C68.371 12.4236 68.5043 11.6969 68.771 11.0569C69.051 10.4036 69.411 9.85027 69.851 9.39694C70.3043 8.9436 70.8176 8.59694 71.391 8.35694C71.9643 8.11694 72.5576 7.99694 73.171 7.99694C73.9043 7.99694 74.5443 8.1236 75.091 8.37694C75.6376 8.63027 76.091 8.97694 76.451 9.41694C76.811 9.85694 77.0776 10.3703 77.251 10.9569C77.4376 11.5436 77.531 12.1703 77.531 12.8369C77.531 13.1436 77.511 13.4303 77.471 13.6969C77.4443 13.9636 77.4176 14.1569 77.391 14.2769H71.691C71.851 14.8769 72.1376 15.2969 72.551 15.5369C72.9643 15.7636 73.451 15.8769 74.011 15.8769C74.3576 15.8769 74.691 15.8303 75.011 15.7369C75.3443 15.6303 75.691 15.4769 76.051 15.2769L77.171 17.3169C76.6243 17.7036 76.0176 17.9969 75.351 18.1969C74.6976 18.3836 74.091 18.4769 73.531 18.4769ZM71.651 12.0369H74.611C74.611 11.6503 74.511 11.3169 74.311 11.0369C74.1243 10.7436 73.771 10.5969 73.251 10.5969C72.8643 10.5969 72.5243 10.7103 72.231 10.9369C71.951 11.1636 71.7576 11.5303 71.651 12.0369ZM83.343 18.4769C82.6897 18.4769 82.1297 18.3836 81.663 18.1969C81.2097 17.9969 80.8297 17.7169 80.523 17.3569C80.2297 16.9969 80.0097 16.5703 79.863 16.0769C79.7297 15.5703 79.663 15.0103 79.663 14.3969V10.9169H78.343V8.35694L79.863 8.23694L80.263 5.63694H83.103V8.23694H85.383V10.9169H83.103V14.3369C83.103 14.8969 83.223 15.2836 83.463 15.4969C83.703 15.6969 83.983 15.7969 84.303 15.7969C84.463 15.7969 84.6163 15.7836 84.763 15.7569C84.923 15.7169 85.063 15.6769 85.183 15.6369L85.703 18.1169C85.4363 18.1969 85.1163 18.2769 84.743 18.3569C84.3697 18.4369 83.903 18.4769 83.343 18.4769Z" fill="#262537"/>
</g>
</svg>
