<svg width="21" height="15" viewBox="0 0 21 15" fill="none" xmlns="http://www.w3.org/2000/svg">
<path d="M16.3834 10.8945C16.3081 10.8945 16.2327 10.8666 16.1739 10.8102L12.6486 7.46438C12.5255 7.34785 12.5193 7.15136 12.6351 7.02677C12.7509 6.90095 12.9439 6.89537 13.0683 7.01314L16.5936 10.359C16.7167 10.4755 16.7228 10.672 16.607 10.7966C16.5464 10.8617 16.4655 10.8945 16.3834 10.8945Z" fill="#2e7d32" stroke="#2e7d32" stroke-width="0.25"/>
<path d="M4.61596 10.8954C4.53448 10.8954 4.45299 10.8625 4.39234 10.7974C4.27655 10.6728 4.28267 10.4763 4.40582 10.3598L7.93232 7.01354C8.05608 6.897 8.25029 6.90196 8.36547 7.02718C8.48127 7.15178 8.47514 7.34829 8.35199 7.46483L4.82549 10.8111C4.76668 10.8675 4.69132 10.8954 4.61596 10.8954Z" fill="#2e7d32" stroke="#2e7d32" stroke-width="0.25"/>
<path d="M18.4683 14.0061H2.53167C1.68741 14.0061 1 13.3112 1 12.4564V1.88908C1 1.03425 1.68741 0.339355 2.53167 0.339355H18.4683C19.3126 0.339355 20 1.03425 20 1.88908V12.4564C20 13.3112 19.3126 14.0061 18.4683 14.0061ZM2.53167 0.959247C2.02499 0.959247 1.61267 1.37643 1.61267 1.88908V12.4564C1.61267 12.969 2.02499 13.3862 2.53167 13.3862H18.4683C18.975 13.3862 19.3873 12.969 19.3873 12.4564V1.88908C19.3873 1.37643 18.975 0.959247 18.4683 0.959247H2.53167Z" fill="#2e7d32" stroke="#2e7d32" stroke-width="0.25"/>
<path d="M10.5 8.72949C10.0926 8.72949 9.68517 8.5925 9.37516 8.31912L1.50857 1.37568C1.38113 1.26348 1.36766 1.06759 1.47855 0.938033C1.59066 0.809095 1.78365 0.797317 1.91109 0.908278L9.77768 7.8511C10.1692 8.19638 10.8308 8.19638 11.2217 7.8511L19.0785 0.919436C19.2053 0.807235 19.3983 0.819633 19.5111 0.949191C19.6219 1.07875 19.6091 1.27402 19.4816 1.38684L11.6249 8.3185C11.3142 8.5925 10.9074 8.72949 10.5 8.72949Z" fill="#2e7d32" stroke="#2e7d32" stroke-width="0.25"/>
</svg>
