<svg width="50" height="50" viewBox="0 0 50 50" fill="none" xmlns="http://www.w3.org/2000/svg">
<path d="M5.83073 4.16602C5.83073 4.62623 5.45777 4.99936 4.99776 4.99936C4.53776 4.99936 4.16479 4.62623 4.16479 4.16602C4.16479 3.70581 4.53776 3.33267 4.99776 3.33267C5.45777 3.33267 5.83073 3.70581 5.83073 4.16602Z" fill="#42415E"/>
<path d="M9.16264 4.16602C9.16264 4.62623 8.78968 4.99936 8.32967 4.99936C7.86967 4.99936 7.4967 4.62623 7.4967 4.16602C7.4967 3.70581 7.86967 3.33267 8.32967 3.33267C8.78968 3.33267 9.16264 3.70581 9.16264 4.16602Z" fill="#42415E"/>
<path d="M12.4945 4.16602C12.4945 4.62623 12.1216 4.99936 11.6616 4.99936C11.2016 4.99936 10.8286 4.62623 10.8286 4.16602C10.8286 3.70581 11.2016 3.33267 11.6616 3.33267C12.1216 3.33267 12.4945 3.70581 12.4945 4.16602Z" fill="#42415E"/>
<path d="M17.4923 3.33267C17.0323 3.33267 16.6593 3.70581 16.6593 4.16602C16.6593 4.62623 17.0323 4.99936 17.4923 4.99936H38.3165C38.7765 4.99936 39.1495 4.62623 39.1495 4.16602C39.1495 3.70581 38.7765 3.33267 38.3165 3.33267H17.4923Z" fill="#42415E"/>
<path d="M12.0113 40.8339H1.66594V8.33346H38.3165C38.7765 8.33346 39.1495 7.96032 39.1495 7.50011C39.1495 7.0399 38.7765 6.66676 38.3165 6.66676H1.66594V1.66669H40.8154V12.0168C40.8154 12.477 41.1884 12.8501 41.6484 12.8501C42.1084 12.8501 42.4814 12.477 42.4814 12.0168V0.833345C42.4814 0.373134 42.1084 0 41.6484 0H0.832968C0.372965 0 0 0.373134 0 0.833345V41.6673C0 42.1275 0.372965 42.5006 0.832968 42.5006H12.0113C12.4713 42.5006 12.8443 42.1275 12.8443 41.6673C12.8443 41.2071 12.4713 40.8339 12.0113 40.8339Z" fill="#42415E"/>
<path d="M49.7365 46.2166L45.1551 41.6665L47.8375 39.8749C48.1136 39.6943 48.2576 39.3675 48.2039 39.0416C48.1482 38.7169 47.9066 38.4556 47.5873 38.3747L36.4008 35.3998C36.1145 35.3253 35.8107 35.4079 35.6016 35.6171C35.3926 35.8262 35.31 36.1302 35.3844 36.4166L38.3165 47.6082C38.3974 47.9276 38.6585 48.1693 38.9827 48.2251C39.3085 48.2788 39.6355 48.1347 39.8157 47.8584L41.6484 45.1749L46.2297 49.7583C46.3867 49.9141 46.5998 50.0012 46.8211 50C47.0423 50.0012 47.2554 49.9141 47.4124 49.7583L49.7698 47.3999C49.9231 47.2391 50.0061 47.0235 49.9996 46.8013C49.9935 46.5791 49.8987 46.3688 49.7365 46.2166ZM46.7877 47.9915L42.073 43.275C41.918 43.1208 41.7086 43.0342 41.4902 43.0333H41.4068C41.1595 43.0586 40.9366 43.1928 40.7987 43.4L39.4659 45.3918L37.3587 37.3749L45.3719 39.4831L43.381 40.8332C43.174 40.9711 43.0398 41.1941 43.0146 41.4415C42.9918 41.6885 43.0804 41.9331 43.2561 42.108L47.9705 46.8249L46.7877 47.9915Z" fill="#2e7d32"/>
<path d="M34.6182 43.758C32.8807 44.4799 31.0326 44.8998 29.1539 44.9999V37.4998C30.3855 37.5287 31.6146 37.6259 32.8356 37.7915C33.2956 37.8558 33.721 37.5352 33.7853 37.075C33.8495 36.6144 33.529 36.1891 33.069 36.1248C31.7704 35.9548 30.4632 35.8575 29.1539 35.8331V29.1663H37.4836C37.4413 30.4733 37.3136 31.7762 37.1005 33.0665C37.0244 33.5267 37.336 33.9613 37.796 34.0374C38.256 34.1131 38.6903 33.8018 38.7664 33.3412C38.9877 31.9597 39.1158 30.5649 39.1495 29.1663H44.9803C44.8937 31.0434 44.4882 32.892 43.7809 34.6331C43.6084 35.0563 43.809 35.5401 44.2307 35.7163C44.3308 35.759 44.4382 35.7818 44.5472 35.783C44.8884 35.7835 45.1955 35.5755 45.322 35.2581C46.2115 33.0584 46.6613 30.7057 46.6463 28.333C46.6483 24.0312 45.132 19.8669 42.3647 16.5746C38.8868 12.4119 33.7442 10.0043 28.321 9.99939H27.721C23.6762 10.132 19.7875 11.5969 16.6594 14.1661C16.3027 14.4583 16.2506 14.9844 16.5427 15.3413C16.8351 15.6977 17.3606 15.7502 17.7173 15.4576C19.1644 14.2666 20.7998 13.3259 22.5569 12.6744C21.1675 14.1869 20.0767 15.9484 19.3417 17.8661C17.9215 17.4629 16.5301 16.9648 15.1769 16.3744C14.8466 16.2348 14.4639 16.3219 14.2272 16.5913C14.2272 16.5913 14.1853 16.5913 14.1686 16.6413C11.4737 19.9312 10.0018 24.0544 10.0038 28.3082C10.0042 32.5701 11.4952 36.6974 14.2187 39.975L14.2772 40.0413C17.7413 44.2284 22.8879 46.6564 28.321 46.6666C30.6954 46.6682 33.0471 46.2039 35.243 45.2998C35.5366 45.2013 35.7514 44.9478 35.8002 44.6418C35.8494 44.3358 35.7245 44.0278 35.4764 43.8422C35.2283 43.6567 34.8977 43.6245 34.6182 43.758ZM27.488 44.925C24.8309 44.4998 22.4902 42.0083 20.9825 38.3413C23.1165 37.8391 25.2966 37.5568 27.488 37.4998V44.925ZM27.488 35.8331C25.0997 35.8823 22.7232 36.1867 20.3996 36.7413C19.6321 34.2873 19.214 31.7372 19.1583 29.1663H27.488V35.8331ZM11.7031 29.1663H17.4924C17.5444 31.8922 17.9821 34.5965 18.7918 37.1999C17.5574 37.5604 16.345 37.9917 15.1602 38.4914C13.0794 35.8111 11.8727 32.5559 11.7031 29.1663ZM35.6094 18.3328C33.4912 18.8285 31.3283 19.1076 29.1539 19.1662V11.7495C31.7862 12.191 34.1017 14.691 35.6094 18.3328ZM27.488 27.4996H19.1583C19.2104 24.9194 19.6313 22.3604 20.4078 19.8994C22.7277 20.4622 25.1013 20.7751 27.488 20.8329V27.4996ZM29.1539 20.8329C31.5227 20.782 33.8792 20.4801 36.1841 19.9328C36.9577 22.3828 37.3783 24.9308 37.4336 27.4996H29.1539V20.8329ZM44.9803 27.4996H39.1495C39.0999 24.777 38.6651 22.0752 37.8586 19.4746C39.1105 19.1149 40.34 18.6807 41.5403 18.1746C43.6149 20.8569 44.8156 24.1121 44.9803 27.4996ZM40.399 16.8411C39.3826 17.2501 38.3454 17.6061 37.292 17.908C36.5616 15.9764 35.4642 14.2048 34.0602 12.6911C36.4473 13.5777 38.6009 14.997 40.3575 16.8411H40.399ZM27.488 11.741V19.1662C25.2966 19.1117 23.1169 18.8325 20.9825 18.3328C22.4902 14.6577 24.8309 12.1662 27.488 11.741ZM17.4924 27.4996H11.6616C11.8336 24.1134 13.0339 20.8605 15.1016 18.1746C16.2893 18.6742 17.505 19.1056 18.7418 19.4661C17.9475 22.0715 17.5269 24.7762 17.4924 27.4996ZM16.2844 39.8249C17.2849 39.4228 18.3054 39.0725 19.3417 38.7746C20.0742 40.6826 21.1594 42.4356 22.5402 43.9415C20.1686 43.0642 18.0288 41.6559 16.2844 39.8249Z" fill="#2e7d32"/>
<path d="M47.5459 20.3161C47.6736 20.6274 47.9758 20.8313 48.3122 20.8329C48.4216 20.8357 48.5297 20.813 48.6286 20.7662C49.0504 20.5896 49.2509 20.1062 49.0784 19.683C48.221 17.6094 47.0525 15.679 45.6131 13.9578C45.3077 13.6844 44.8485 13.6742 44.5308 13.9334C44.2136 14.193 44.1318 14.6455 44.3389 14.9995C45.6701 16.5994 46.7516 18.3923 47.5459 20.3161Z" fill="#42415E"/>
<path d="M11.0201 13.9578C7.66663 17.9972 5.8311 23.0823 5.83069 28.333C5.83069 28.7932 6.20365 29.1664 6.66366 29.1664C7.12366 29.1664 7.49662 28.7932 7.49662 28.333C7.49174 23.4632 9.19225 18.7455 12.3029 14.9995C12.5973 14.6451 12.5489 14.1189 12.1947 13.8243C11.8404 13.5297 11.3145 13.5786 11.0201 13.933V13.9578Z" fill="#42415E"/>
</svg>
