<svg width="16" height="16" viewBox="0 0 16 16" fill="none" xmlns="http://www.w3.org/2000/svg">
<g clip-path="url(#clip0)">
<path d="M14.54 13.9249L10.97 10.2119C11.8879 9.12071 12.3909 7.74779 12.3909 6.31851C12.3909 2.97915 9.67399 0.262268 6.33463 0.262268C2.99527 0.262268 0.278381 2.97915 0.278381 6.31851C0.278381 9.65787 2.99527 12.3748 6.33463 12.3748C7.58827 12.3748 8.78293 11.9966 9.80433 11.2788L13.4015 15.02C13.5518 15.1762 13.7541 15.2623 13.9708 15.2623C14.1759 15.2623 14.3705 15.1841 14.5182 15.0419C14.8321 14.7399 14.8421 14.239 14.54 13.9249ZM6.33463 1.84216C8.80294 1.84216 10.811 3.8502 10.811 6.31851C10.811 8.78683 8.80294 10.7949 6.33463 10.7949C3.86631 10.7949 1.85827 8.78683 1.85827 6.31851C1.85827 3.8502 3.86631 1.84216 6.33463 1.84216Z" fill="#42415E"/>
</g>
<defs>
<clipPath id="clip0">
<rect width="15" height="15" fill="white" transform="translate(0.0192871 0.262268)"/>
</clipPath>
</defs>
</svg>
