<svg width="16" height="16" viewBox="0 0 16 16" fill="none" xmlns="http://www.w3.org/2000/svg">
<g clip-path="url(#clip0)">
<path d="M14.655 14.1668L11.085 10.4538C12.0029 9.36259 12.5059 7.98967 12.5059 6.56039C12.5059 3.22103 9.78898 0.50415 6.44962 0.50415C3.11026 0.50415 0.393372 3.22103 0.393372 6.56039C0.393372 9.89975 3.11026 12.6166 6.44962 12.6166C7.70326 12.6166 8.89792 12.2385 9.91932 11.5207L13.5165 15.2619C13.6668 15.418 13.869 15.5042 14.0857 15.5042C14.2909 15.5042 14.4855 15.4259 14.6332 15.2838C14.9471 14.9817 14.9571 14.4809 14.655 14.1668ZM6.44962 2.08404C8.91793 2.08404 10.926 4.09208 10.926 6.56039C10.926 9.02871 8.91793 11.0367 6.44962 11.0367C3.9813 11.0367 1.97326 9.02871 1.97326 6.56039C1.97326 4.09208 3.9813 2.08404 6.44962 2.08404Z" fill="#2e7d32"/>
</g>
<defs>
<clipPath id="clip0">
<rect width="15" height="15" fill="white" transform="translate(0.134277 0.50415)"/>
</clipPath>
</defs>
</svg>
