<svg width="37" height="37" viewBox="0 0 37 37" fill="none" xmlns="http://www.w3.org/2000/svg">
<g clip-path="url(#clip0)">
<path d="M18.4874 36.4321C28.4286 36.4321 36.4874 28.3733 36.4874 18.4321C36.4874 8.491 28.4286 0.432129 18.4874 0.432129C8.5463 0.432129 0.487427 8.491 0.487427 18.4321C0.487427 28.3733 8.5463 36.4321 18.4874 36.4321Z" fill="#4D76A1"/>
<path fill-rule="evenodd" clip-rule="evenodd" d="M17.8075 26.3268H19.2203C19.2203 26.3268 19.6471 26.28 19.8649 26.0451C20.0655 25.8295 20.0591 25.4246 20.0591 25.4246C20.0591 25.4246 20.0315 23.5289 20.9113 23.2497C21.7786 22.9747 22.8923 25.0819 24.0728 25.8921C24.9654 26.5052 25.6437 26.3708 25.6437 26.3708L28.8001 26.3268C28.8001 26.3268 30.4513 26.2251 29.6684 24.9269C29.6042 24.8207 29.2124 23.9665 27.3216 22.2114C25.3424 20.3744 25.6075 20.6716 27.9915 17.494C29.4435 15.5589 30.0239 14.3774 29.8426 13.8714C29.6697 13.3895 28.6018 13.5169 28.6018 13.5169L25.0479 13.539C25.0479 13.539 24.7845 13.5031 24.5891 13.6199C24.3981 13.7344 24.2752 14.0014 24.2752 14.0014C24.2752 14.0014 23.7128 15.4989 22.9626 16.7724C21.3801 19.4596 20.7473 19.6015 20.4887 19.4346C19.8871 19.0457 20.0372 17.8723 20.0372 17.0387C20.0372 14.4345 20.4322 13.3487 19.2681 13.0676C18.8818 12.9743 18.5975 12.9127 17.6096 12.9027C16.3415 12.8896 15.2682 12.9066 14.6605 13.2043C14.2562 13.4023 13.9443 13.8435 14.1342 13.8689C14.3691 13.9003 14.9011 14.0123 15.1832 14.3964C15.5473 14.8918 15.5345 16.0045 15.5345 16.0045C15.5345 16.0045 15.7437 19.0701 15.0458 19.451C14.5668 19.7122 13.9096 19.1789 12.4988 16.7409C11.7759 15.4921 11.2301 14.1117 11.2301 14.1117C11.2301 14.1117 11.1248 13.8538 10.9371 13.7158C10.7093 13.5486 10.391 13.4954 10.391 13.4954L7.01388 13.5175C7.01388 13.5175 6.50691 13.5316 6.32081 13.7521C6.15524 13.9481 6.30765 14.3537 6.30765 14.3537C6.30765 14.3537 8.9516 20.5394 11.9453 23.6566C14.6903 26.5145 17.8075 26.3268 17.8075 26.3268Z" fill="white"/>
</g>
<defs>
<clipPath id="clip0">
<rect width="36" height="36" fill="white" transform="translate(0.487427 0.432129)"/>
</clipPath>
</defs>
</svg>
